<svg width="611" height="683" viewBox="0 0 611 683" fill="none" xmlns="http://www.w3.org/2000/svg">
<path d="M564.046 192.445L394.879 192.445C391.664 192.445 388.58 191.168 386.306 188.895C384.033 186.621 382.755 183.537 382.755 180.322V57.1712C382.755 53.9574 384.032 50.8751 386.305 48.6026C388.577 46.33 391.659 45.0533 394.873 45.0533L564.051 45.0533C567.265 45.0533 570.347 46.33 572.62 48.6026C574.893 50.8751 576.169 53.9574 576.169 57.1712V180.322C576.169 183.537 574.892 186.621 572.618 188.895C570.345 191.168 567.261 192.445 564.046 192.445Z" fill="white"/>
<path d="M382.249 180.321V57.1704C382.249 53.8222 383.579 50.6111 385.946 48.2436C388.314 45.876 391.525 44.546 394.873 44.546H564.051C567.4 44.546 570.611 45.876 572.978 48.2436C575.346 50.6111 576.676 53.8222 576.676 57.1704V180.321C576.676 181.98 576.349 183.622 575.714 185.154C575.08 186.687 574.149 188.079 572.977 189.252C571.804 190.425 570.411 191.355 568.879 191.99C567.347 192.624 565.704 192.951 564.046 192.951H394.879C393.22 192.951 391.578 192.624 390.046 191.99C388.513 191.355 387.121 190.425 385.948 189.252C384.775 188.079 383.845 186.687 383.21 185.154C382.575 183.622 382.249 181.98 382.249 180.321ZM394.873 45.559C391.794 45.5599 388.842 46.7836 386.665 48.9611C384.488 51.1386 383.265 54.0915 383.265 57.1704V180.321C383.265 183.402 384.489 186.357 386.668 188.536C388.846 190.714 391.801 191.938 394.882 191.938H564.046C567.127 191.938 570.082 190.714 572.26 188.536C574.439 186.357 575.663 183.402 575.663 180.321V57.1704C575.663 54.0909 574.439 51.1375 572.262 48.9599C570.084 46.7824 567.131 45.559 564.051 45.559H394.873Z" fill="#292A2E"/>
<path d="M382.756 57.1689V67.43H576.168V57.1689C576.168 53.955 574.891 50.8727 572.618 48.6002C570.346 46.3276 567.264 45.0509 564.05 45.0509H394.873C393.282 45.0509 391.706 45.3643 390.236 45.9733C388.766 46.5823 387.43 47.475 386.305 48.6002C385.18 49.7255 384.287 51.0614 383.678 52.5316C383.069 54.0018 382.756 55.5775 382.756 57.1689Z" fill="#292A2E"/>
<path d="M448.809 84.0169H439.683C439.575 84.0169 439.472 83.9742 439.396 83.8982C439.32 83.8222 439.277 83.7191 439.277 83.6116C439.277 83.5042 439.32 83.4011 439.396 83.3251C439.472 83.2491 439.575 83.2064 439.683 83.2064H448.809C448.917 83.2064 449.02 83.2491 449.096 83.3251C449.172 83.4011 449.214 83.5042 449.214 83.6116C449.214 83.7191 449.172 83.8222 449.096 83.8982C449.02 83.9742 448.917 84.0169 448.809 84.0169Z" fill="#292A2E"/>
<path d="M433.101 84.0169H429.648C429.54 84.0169 429.437 83.9742 429.361 83.8982C429.285 83.8222 429.242 83.7191 429.242 83.6116C429.242 83.5042 429.285 83.4011 429.361 83.3251C429.437 83.2491 429.54 83.2064 429.648 83.2064H433.101C433.208 83.2064 433.311 83.2491 433.387 83.3251C433.463 83.4011 433.506 83.5042 433.506 83.6116C433.506 83.7191 433.463 83.8222 433.387 83.8982C433.311 83.9742 433.208 84.0169 433.101 84.0169Z" fill="#F9B572"/>
<path d="M433.101 91.3272H429.648C429.54 91.3272 429.437 91.2845 429.361 91.2085C429.285 91.1325 429.242 91.0294 429.242 90.922C429.242 90.8145 429.285 90.7114 429.361 90.6354C429.437 90.5594 429.54 90.5167 429.648 90.5167H433.101C433.208 90.5167 433.311 90.5594 433.387 90.6354C433.463 90.7114 433.506 90.8145 433.506 90.922C433.506 91.0294 433.463 91.1325 433.387 91.2085C433.311 91.2845 433.208 91.3272 433.101 91.3272Z" fill="#F9B572"/>
<path d="M433.101 98.6375H429.648C429.54 98.6375 429.437 98.5948 429.361 98.5188C429.285 98.4428 429.242 98.3397 429.242 98.2323C429.242 98.1248 429.285 98.0217 429.361 97.9457C429.437 97.8697 429.54 97.827 429.648 97.827H433.101C433.208 97.827 433.311 97.8697 433.387 97.9457C433.463 98.0217 433.506 98.1248 433.506 98.2323C433.506 98.3397 433.463 98.4428 433.387 98.5188C433.311 98.5948 433.208 98.6375 433.101 98.6375Z" fill="#F9B572"/>
<path d="M433.101 105.948H429.648C429.54 105.948 429.437 105.905 429.361 105.829C429.285 105.753 429.242 105.65 429.242 105.543C429.242 105.435 429.285 105.332 429.361 105.256C429.437 105.18 429.54 105.137 429.648 105.137H433.101C433.208 105.137 433.311 105.18 433.387 105.256C433.463 105.332 433.506 105.435 433.506 105.543C433.506 105.65 433.463 105.753 433.387 105.829C433.311 105.905 433.208 105.948 433.101 105.948Z" fill="#F9B572"/>
<path d="M433.101 113.258H429.648C429.54 113.258 429.437 113.216 429.361 113.14C429.285 113.064 429.242 112.96 429.242 112.853C429.242 112.746 429.285 112.642 429.361 112.566C429.437 112.49 429.54 112.448 429.648 112.448H433.101C433.208 112.448 433.311 112.49 433.387 112.566C433.463 112.642 433.506 112.746 433.506 112.853C433.506 112.96 433.463 113.064 433.387 113.14C433.311 113.216 433.208 113.258 433.101 113.258Z" fill="#F9B572"/>
<path d="M433.101 120.569H429.648C429.54 120.569 429.437 120.526 429.361 120.45C429.285 120.374 429.242 120.271 429.242 120.163C429.242 120.056 429.285 119.953 429.361 119.877C429.437 119.801 429.54 119.758 429.648 119.758H433.101C433.208 119.758 433.311 119.801 433.387 119.877C433.463 119.953 433.506 120.056 433.506 120.163C433.506 120.271 433.463 120.374 433.387 120.45C433.311 120.526 433.208 120.569 433.101 120.569Z" fill="#F9B572"/>
<path d="M433.101 127.879H429.648C429.54 127.879 429.437 127.836 429.361 127.76C429.285 127.684 429.242 127.581 429.242 127.474C429.242 127.366 429.285 127.263 429.361 127.187C429.437 127.111 429.54 127.068 429.648 127.068H433.101C433.208 127.068 433.311 127.111 433.387 127.187C433.463 127.263 433.506 127.366 433.506 127.474C433.506 127.581 433.463 127.684 433.387 127.76C433.311 127.836 433.208 127.879 433.101 127.879Z" fill="#F9B572"/>
<path d="M433.101 135.189H429.648C429.54 135.189 429.437 135.146 429.361 135.07C429.285 134.994 429.242 134.891 429.242 134.784C429.242 134.676 429.285 134.573 429.361 134.497C429.437 134.421 429.54 134.379 429.648 134.379H433.101C433.208 134.379 433.311 134.421 433.387 134.497C433.463 134.573 433.506 134.676 433.506 134.784C433.506 134.891 433.463 134.994 433.387 135.07C433.311 135.146 433.208 135.189 433.101 135.189Z" fill="#F9B572"/>
<path d="M433.101 142.499H429.648C429.54 142.499 429.437 142.457 429.361 142.381C429.285 142.305 429.242 142.202 429.242 142.094C429.242 141.987 429.285 141.884 429.361 141.808C429.437 141.732 429.54 141.689 429.648 141.689H433.101C433.208 141.689 433.311 141.732 433.387 141.808C433.463 141.884 433.506 141.987 433.506 142.094C433.506 142.202 433.463 142.305 433.387 142.381C433.311 142.457 433.208 142.499 433.101 142.499Z" fill="#F9B572"/>
<path d="M433.101 149.81H429.648C429.54 149.81 429.437 149.767 429.361 149.691C429.285 149.615 429.242 149.512 429.242 149.404C429.242 149.297 429.285 149.194 429.361 149.118C429.437 149.042 429.54 148.999 429.648 148.999H433.101C433.208 148.999 433.311 149.042 433.387 149.118C433.463 149.194 433.506 149.297 433.506 149.404C433.506 149.512 433.463 149.615 433.387 149.691C433.311 149.767 433.208 149.81 433.101 149.81Z" fill="#F9B572"/>
<path d="M433.101 157.12H429.648C429.54 157.12 429.437 157.077 429.361 157.001C429.285 156.925 429.242 156.822 429.242 156.715C429.242 156.607 429.285 156.504 429.361 156.428C429.437 156.352 429.54 156.31 429.648 156.31H433.101C433.208 156.31 433.311 156.352 433.387 156.428C433.463 156.504 433.506 156.607 433.506 156.715C433.506 156.822 433.463 156.925 433.387 157.001C433.311 157.077 433.208 157.12 433.101 157.12Z" fill="#F9B572"/>
<path d="M433.101 164.43H429.648C429.54 164.43 429.437 164.388 429.361 164.312C429.285 164.236 429.242 164.133 429.242 164.025C429.242 163.918 429.285 163.815 429.361 163.739C429.437 163.663 429.54 163.62 429.648 163.62H433.101C433.208 163.62 433.311 163.663 433.387 163.739C433.463 163.815 433.506 163.918 433.506 164.025C433.506 164.133 433.463 164.236 433.387 164.312C433.311 164.388 433.208 164.43 433.101 164.43Z" fill="#F9B572"/>
<path d="M433.101 171.741H429.648C429.54 171.741 429.437 171.698 429.361 171.622C429.285 171.546 429.242 171.443 429.242 171.336C429.242 171.228 429.285 171.125 429.361 171.049C429.437 170.973 429.54 170.93 429.648 170.93H433.101C433.208 170.93 433.311 170.973 433.387 171.049C433.463 171.125 433.506 171.228 433.506 171.336C433.506 171.443 433.463 171.546 433.387 171.622C433.311 171.698 433.208 171.741 433.101 171.741Z" fill="#F9B572"/>
<path d="M433.101 179.052H429.648C429.54 179.052 429.437 179.009 429.361 178.933C429.285 178.857 429.242 178.754 429.242 178.647C429.242 178.539 429.285 178.436 429.361 178.36C429.437 178.284 429.54 178.241 429.648 178.241H433.101C433.208 178.241 433.311 178.284 433.387 178.36C433.463 178.436 433.506 178.539 433.506 178.647C433.506 178.754 433.463 178.857 433.387 178.933C433.311 179.009 433.208 179.052 433.101 179.052Z" fill="#F9B572"/>
<path d="M456.103 91.3272H447.787C447.68 91.3272 447.577 91.2845 447.501 91.2085C447.425 91.1325 447.382 91.0294 447.382 90.922C447.382 90.8145 447.425 90.7114 447.501 90.6354C447.577 90.5594 447.68 90.5167 447.787 90.5167H456.103C456.211 90.5167 456.314 90.5594 456.39 90.6354C456.466 90.7114 456.509 90.8145 456.509 90.922C456.509 91.0294 456.466 91.1325 456.39 91.2085C456.314 91.2845 456.211 91.3272 456.103 91.3272Z" fill="#292A2E"/>
<path d="M448.809 135.189H439.683C439.575 135.189 439.472 135.146 439.396 135.07C439.32 134.994 439.277 134.891 439.277 134.784C439.277 134.676 439.32 134.573 439.396 134.497C439.472 134.421 439.575 134.379 439.683 134.379H448.809C448.917 134.379 449.02 134.421 449.096 134.497C449.172 134.573 449.214 134.676 449.214 134.784C449.214 134.891 449.172 134.994 449.096 135.07C449.02 135.146 448.917 135.189 448.809 135.189Z" fill="#292A2E"/>
<path d="M456.103 142.499H447.787C447.68 142.499 447.577 142.457 447.501 142.381C447.425 142.305 447.382 142.202 447.382 142.094C447.382 141.987 447.425 141.884 447.501 141.808C447.577 141.732 447.68 141.689 447.787 141.689H456.103C456.211 141.689 456.314 141.732 456.39 141.808C456.466 141.884 456.509 141.987 456.509 142.094C456.509 142.202 456.466 142.305 456.39 142.381C456.314 142.457 456.211 142.499 456.103 142.499Z" fill="#292A2E"/>
<path d="M503.11 98.6375H453.46C453.353 98.6375 453.25 98.5948 453.174 98.5188C453.098 98.4428 453.055 98.3397 453.055 98.2323C453.055 98.1248 453.098 98.0217 453.174 97.9457C453.25 97.8697 453.353 97.827 453.46 97.827H503.11C503.217 97.827 503.32 97.8697 503.396 97.9457C503.472 98.0217 503.515 98.1248 503.515 98.2323C503.515 98.3397 503.472 98.4428 503.396 98.5188C503.32 98.5948 503.217 98.6375 503.11 98.6375Z" fill="#292A2E"/>
<path d="M546.945 98.6375H511.885C511.777 98.6375 511.674 98.5948 511.598 98.5188C511.522 98.4428 511.479 98.3397 511.479 98.2323C511.479 98.1248 511.522 98.0217 511.598 97.9457C511.674 97.8697 511.777 97.827 511.885 97.827H546.945C547.052 97.827 547.156 97.8697 547.232 97.9457C547.308 98.0217 547.35 98.1248 547.35 98.2323C547.35 98.3397 547.308 98.4428 547.232 98.5188C547.156 98.5948 547.052 98.6375 546.945 98.6375Z" fill="#EFC65C"/>
<path d="M565.761 98.6375H555.014C554.906 98.6375 554.803 98.5948 554.727 98.5188C554.651 98.4428 554.609 98.3397 554.609 98.2323C554.609 98.1248 554.651 98.0217 554.727 97.9457C554.803 97.8697 554.906 97.827 555.014 97.827H565.761C565.868 97.827 565.971 97.8697 566.047 97.9457C566.123 98.0217 566.166 98.1248 566.166 98.2323C566.166 98.3397 566.123 98.4428 566.047 98.5188C565.971 98.5948 565.868 98.6375 565.761 98.6375Z" fill="#292A2E"/>
<path d="M527.424 113.258H453.46C453.353 113.258 453.25 113.215 453.174 113.139C453.098 113.063 453.055 112.96 453.055 112.853C453.055 112.745 453.098 112.642 453.174 112.566C453.25 112.49 453.353 112.448 453.46 112.448H527.424C527.531 112.448 527.634 112.49 527.71 112.566C527.786 112.642 527.829 112.745 527.829 112.853C527.829 112.96 527.786 113.063 527.71 113.139C527.634 113.215 527.531 113.258 527.424 113.258Z" fill="#292A2E"/>
<path d="M546.945 113.258H536.198C536.091 113.258 535.988 113.215 535.912 113.139C535.836 113.063 535.793 112.96 535.793 112.853C535.793 112.745 535.836 112.642 535.912 112.566C535.988 112.49 536.091 112.448 536.198 112.448H546.945C547.052 112.448 547.156 112.49 547.232 112.566C547.308 112.642 547.35 112.745 547.35 112.853C547.35 112.96 547.308 113.063 547.232 113.139C547.156 113.215 547.052 113.258 546.945 113.258Z" fill="#F9B572"/>
<path d="M462.587 105.948H453.46C453.353 105.948 453.25 105.905 453.174 105.829C453.098 105.753 453.055 105.65 453.055 105.543C453.055 105.435 453.098 105.332 453.174 105.256C453.25 105.18 453.353 105.137 453.46 105.137H462.587C462.694 105.137 462.797 105.18 462.873 105.256C462.949 105.332 462.992 105.435 462.992 105.543C462.992 105.65 462.949 105.753 462.873 105.829C462.797 105.905 462.694 105.948 462.587 105.948Z" fill="#EFC65C"/>
<path d="M522.631 105.948H471.362C471.254 105.948 471.151 105.905 471.075 105.829C470.999 105.753 470.957 105.65 470.957 105.543C470.957 105.435 470.999 105.332 471.075 105.256C471.151 105.18 471.254 105.137 471.362 105.137H522.631C522.739 105.137 522.842 105.18 522.918 105.256C522.994 105.332 523.037 105.435 523.037 105.543C523.037 105.65 522.994 105.753 522.918 105.829C522.842 105.905 522.739 105.948 522.631 105.948Z" fill="#F9B572"/>
<path d="M565.831 105.948H532.389C532.282 105.948 532.179 105.905 532.103 105.829C532.027 105.753 531.984 105.65 531.984 105.543C531.984 105.435 532.027 105.332 532.103 105.256C532.179 105.18 532.282 105.137 532.389 105.137H565.829C565.937 105.137 566.04 105.18 566.116 105.256C566.192 105.332 566.235 105.435 566.235 105.543C566.235 105.65 566.192 105.753 566.116 105.829C566.04 105.905 565.937 105.948 565.829 105.948H565.831Z" fill="#292A2E"/>
<path d="M503.11 120.569H453.46C453.353 120.569 453.25 120.526 453.174 120.45C453.098 120.374 453.055 120.271 453.055 120.163C453.055 120.056 453.098 119.953 453.174 119.877C453.25 119.801 453.353 119.758 453.46 119.758H503.11C503.217 119.758 503.32 119.801 503.396 119.877C503.472 119.953 503.515 120.056 503.515 120.163C503.515 120.271 503.472 120.374 503.396 120.45C503.32 120.526 503.217 120.569 503.11 120.569Z" fill="#292A2E"/>
<path d="M530.736 120.569H511.885C511.777 120.569 511.674 120.526 511.598 120.45C511.522 120.374 511.479 120.271 511.479 120.163C511.479 120.056 511.522 119.953 511.598 119.877C511.674 119.801 511.777 119.758 511.885 119.758H530.736C530.843 119.758 530.946 119.801 531.022 119.877C531.098 119.953 531.141 120.056 531.141 120.163C531.141 120.271 531.098 120.374 531.022 120.45C530.946 120.526 530.843 120.569 530.736 120.569Z" fill="#EFC65C"/>
<path d="M565.761 120.569H538.805C538.697 120.569 538.594 120.526 538.518 120.45C538.442 120.374 538.4 120.271 538.4 120.163C538.4 120.056 538.442 119.953 538.518 119.877C538.594 119.801 538.697 119.758 538.805 119.758H565.761C565.868 119.758 565.971 119.801 566.047 119.877C566.123 119.953 566.166 120.056 566.166 120.163C566.166 120.271 566.123 120.374 566.047 120.45C565.971 120.526 565.868 120.569 565.761 120.569Z" fill="#292A2E"/>
<path d="M462.587 127.879H453.46C453.353 127.879 453.25 127.836 453.174 127.76C453.098 127.684 453.055 127.581 453.055 127.474C453.055 127.366 453.098 127.263 453.174 127.187C453.25 127.111 453.353 127.068 453.46 127.068H462.587C462.694 127.068 462.797 127.111 462.873 127.187C462.949 127.263 462.992 127.366 462.992 127.474C462.992 127.581 462.949 127.684 462.873 127.76C462.797 127.836 462.694 127.879 462.587 127.879Z" fill="#F9B572"/>
<path d="M522.631 127.879H471.362C471.254 127.879 471.151 127.836 471.075 127.76C470.999 127.684 470.957 127.581 470.957 127.474C470.957 127.366 470.999 127.263 471.075 127.187C471.151 127.111 471.254 127.068 471.362 127.068H522.631C522.739 127.068 522.842 127.111 522.918 127.187C522.994 127.263 523.037 127.366 523.037 127.474C523.037 127.581 522.994 127.684 522.918 127.76C522.842 127.836 522.739 127.879 522.631 127.879Z" fill="#EFC65C"/>
<path d="M501.489 157.12H451.84C451.732 157.12 451.629 157.077 451.553 157.001C451.477 156.925 451.434 156.822 451.434 156.715C451.434 156.607 451.477 156.504 451.553 156.428C451.629 156.352 451.732 156.31 451.84 156.31H501.489C501.596 156.31 501.699 156.352 501.775 156.428C501.851 156.504 501.894 156.607 501.894 156.715C501.894 156.822 501.851 156.925 501.775 157.001C501.699 157.077 501.596 157.12 501.489 157.12Z" fill="#292A2E"/>
<path d="M545.324 157.12H510.264C510.156 157.12 510.053 157.077 509.977 157.001C509.901 156.925 509.859 156.822 509.859 156.715C509.859 156.607 509.901 156.504 509.977 156.428C510.053 156.352 510.156 156.31 510.264 156.31H545.324C545.432 156.31 545.535 156.352 545.611 156.428C545.687 156.504 545.729 156.607 545.729 156.715C545.729 156.822 545.687 156.925 545.611 157.001C545.535 157.077 545.432 157.12 545.324 157.12Z" fill="#F9B572"/>
<path d="M477.175 149.81H451.84C451.732 149.81 451.629 149.767 451.553 149.691C451.477 149.615 451.434 149.512 451.434 149.404C451.434 149.297 451.477 149.194 451.553 149.118C451.629 149.042 451.732 148.999 451.84 148.999H477.175C477.283 148.999 477.386 149.042 477.462 149.118C477.538 149.194 477.58 149.297 477.58 149.404C477.58 149.512 477.538 149.615 477.462 149.691C477.386 149.767 477.283 149.81 477.175 149.81Z" fill="#EFC65C"/>
<path d="M521.01 149.81H485.95C485.843 149.81 485.74 149.767 485.664 149.691C485.588 149.615 485.545 149.512 485.545 149.404C485.545 149.297 485.588 149.194 485.664 149.118C485.74 149.042 485.843 148.999 485.95 148.999H521.01C521.118 148.999 521.221 149.042 521.297 149.118C521.373 149.194 521.416 149.297 521.416 149.404C521.416 149.512 521.373 149.615 521.297 149.691C521.221 149.767 521.118 149.81 521.01 149.81Z" fill="#F9B572"/>
<path d="M564.21 149.81H530.768C530.661 149.81 530.558 149.767 530.482 149.691C530.406 149.615 530.363 149.512 530.363 149.404C530.363 149.297 530.406 149.194 530.482 149.118C530.558 149.042 530.661 148.999 530.768 148.999H564.209C564.316 148.999 564.419 149.042 564.495 149.118C564.571 149.194 564.614 149.297 564.614 149.404C564.614 149.512 564.571 149.615 564.495 149.691C564.419 149.767 564.316 149.81 564.209 149.81H564.21Z" fill="#292A2E"/>
<path d="M525.803 171.741H451.84C451.732 171.741 451.629 171.699 451.553 171.623C451.477 171.547 451.434 171.444 451.434 171.336C451.434 171.229 451.477 171.126 451.553 171.05C451.629 170.974 451.732 170.931 451.84 170.931H525.803C525.91 170.931 526.013 170.974 526.089 171.05C526.165 171.126 526.208 171.229 526.208 171.336C526.208 171.444 526.165 171.547 526.089 171.623C526.013 171.699 525.91 171.741 525.803 171.741Z" fill="#F9B572"/>
<path d="M545.324 171.741H534.577C534.47 171.741 534.367 171.699 534.291 171.623C534.215 171.547 534.172 171.444 534.172 171.336C534.172 171.229 534.215 171.126 534.291 171.05C534.367 170.974 534.47 170.931 534.577 170.931H545.324C545.432 170.931 545.535 170.974 545.611 171.05C545.687 171.126 545.729 171.229 545.729 171.336C545.729 171.444 545.687 171.547 545.611 171.623C545.535 171.699 545.432 171.741 545.324 171.741Z" fill="#292A2E"/>
<path d="M460.966 164.431H451.84C451.732 164.431 451.629 164.388 451.553 164.313C451.477 164.237 451.434 164.133 451.434 164.026C451.434 163.918 451.477 163.815 451.553 163.739C451.629 163.663 451.732 163.621 451.84 163.621H460.966C461.074 163.621 461.177 163.663 461.253 163.739C461.329 163.815 461.371 163.918 461.371 164.026C461.371 164.133 461.329 164.237 461.253 164.313C461.177 164.388 461.074 164.431 460.966 164.431Z" fill="#F9B572"/>
<path d="M521.01 164.431H469.741C469.633 164.431 469.53 164.388 469.454 164.313C469.378 164.237 469.336 164.133 469.336 164.026C469.336 163.918 469.378 163.815 469.454 163.739C469.53 163.663 469.633 163.621 469.741 163.621H521.01C521.118 163.621 521.221 163.663 521.297 163.739C521.373 163.815 521.416 163.918 521.416 164.026C521.416 164.133 521.373 164.237 521.297 164.313C521.221 164.388 521.118 164.431 521.01 164.431Z" fill="#292A2E"/>
<path d="M564.21 164.431H530.768C530.661 164.431 530.558 164.388 530.482 164.313C530.406 164.237 530.363 164.133 530.363 164.026C530.363 163.918 530.406 163.815 530.482 163.739C530.558 163.663 530.661 163.621 530.768 163.621H564.209C564.316 163.621 564.419 163.663 564.495 163.739C564.571 163.815 564.614 163.918 564.614 164.026C564.614 164.133 564.571 164.237 564.495 164.313C564.419 164.388 564.316 164.431 564.209 164.431H564.21Z" fill="#EFC65C"/>
<path d="M501.489 179.052H451.84C451.732 179.052 451.629 179.009 451.553 178.933C451.477 178.857 451.434 178.754 451.434 178.647C451.434 178.539 451.477 178.436 451.553 178.36C451.629 178.284 451.732 178.241 451.84 178.241H501.489C501.596 178.241 501.699 178.284 501.775 178.36C501.851 178.436 501.894 178.539 501.894 178.647C501.894 178.754 501.851 178.857 501.775 178.933C501.699 179.009 501.596 179.052 501.489 179.052Z" fill="#EFC65C"/>
<path d="M529.115 179.052H510.264C510.156 179.052 510.053 179.009 509.977 178.933C509.901 178.857 509.859 178.754 509.859 178.647C509.859 178.539 509.901 178.436 509.977 178.36C510.053 178.284 510.156 178.241 510.264 178.241H529.115C529.222 178.241 529.326 178.284 529.402 178.36C529.478 178.436 529.52 178.539 529.52 178.647C529.52 178.754 529.478 178.857 529.402 178.933C529.326 179.009 529.222 179.052 529.115 179.052Z" fill="#292A2E"/>
<path d="M564.14 179.052H537.184C537.076 179.052 536.973 179.009 536.897 178.933C536.821 178.857 536.779 178.754 536.779 178.647C536.779 178.539 536.821 178.436 536.897 178.36C536.973 178.284 537.076 178.241 537.184 178.241H564.14C564.247 178.241 564.35 178.284 564.426 178.36C564.502 178.436 564.545 178.539 564.545 178.647C564.545 178.754 564.502 178.857 564.426 178.933C564.35 179.009 564.247 179.052 564.14 179.052Z" fill="#F9B572"/>
<path d="M425.799 186.874C425.691 186.874 425.588 186.832 425.512 186.756C425.436 186.68 425.393 186.577 425.393 186.469V71.2554C425.393 71.1479 425.436 71.0448 425.512 70.9688C425.588 70.8929 425.691 70.8502 425.799 70.8502C425.906 70.8502 426.009 70.8929 426.085 70.9688C426.161 71.0448 426.204 71.1479 426.204 71.2554V186.469C426.204 186.577 426.161 186.68 426.085 186.756C426.009 186.832 425.906 186.874 425.799 186.874Z" fill="#292A2E"/>
<path d="M561.515 63.5536C565.106 63.5536 568.017 60.6428 568.017 57.0521C568.017 53.4615 565.106 50.5507 561.515 50.5507C557.925 50.5507 555.014 53.4615 555.014 57.0521C555.014 60.6428 557.925 63.5536 561.515 63.5536Z" fill="white"/>
<path d="M407.264 76.3175H389.716C389.609 76.3175 389.506 76.2748 389.43 76.1988C389.354 76.1229 389.311 76.0198 389.311 75.9123C389.311 75.8048 389.354 75.7018 389.43 75.6258C389.506 75.5498 389.609 75.5071 389.716 75.5071H407.264C407.372 75.5071 407.475 75.5498 407.551 75.6258C407.627 75.7018 407.67 75.8048 407.67 75.9123C407.67 76.0198 407.627 76.1229 407.551 76.1988C407.475 76.2748 407.372 76.3175 407.264 76.3175Z" fill="#292A2E"/>
<path d="M401.978 84.3102H389.716C389.609 84.3102 389.506 84.2675 389.43 84.1915C389.354 84.1155 389.311 84.0125 389.311 83.905C389.311 83.7975 389.354 83.6944 389.43 83.6184C389.506 83.5424 389.609 83.4998 389.716 83.4998H401.978C402.085 83.4998 402.188 83.5424 402.264 83.6184C402.34 83.6944 402.383 83.7975 402.383 83.905C402.383 84.0125 402.34 84.1155 402.264 84.1915C402.188 84.2675 402.085 84.3102 401.978 84.3102Z" fill="#292A2E"/>
<path d="M412.761 92.303H389.716C389.609 92.303 389.506 92.2603 389.43 92.1843C389.354 92.1083 389.311 92.0053 389.311 91.8978C389.311 91.7903 389.354 91.6872 389.43 91.6112C389.506 91.5352 389.609 91.4926 389.716 91.4926H412.761C412.868 91.4926 412.971 91.5352 413.047 91.6112C413.123 91.6872 413.166 91.7903 413.166 91.8978C413.166 92.0053 413.123 92.1083 413.047 92.1843C412.971 92.2603 412.868 92.303 412.761 92.303Z" fill="#292A2E"/>
<path d="M417.061 100.296H397.821C397.713 100.296 397.61 100.253 397.534 100.177C397.458 100.101 397.416 99.9979 397.416 99.8905C397.416 99.783 397.458 99.6799 397.534 99.6039C397.61 99.5279 397.713 99.4852 397.821 99.4852H417.061C417.169 99.4852 417.272 99.5279 417.348 99.6039C417.424 99.6799 417.466 99.783 417.466 99.8905C417.466 99.9979 417.424 100.101 417.348 100.177C417.272 100.253 417.169 100.296 417.061 100.296Z" fill="#292A2E"/>
<path d="M407.757 108.289H397.821C397.713 108.289 397.61 108.247 397.534 108.171C397.458 108.095 397.416 107.991 397.416 107.884C397.416 107.777 397.458 107.673 397.534 107.597C397.61 107.521 397.713 107.479 397.821 107.479H407.757C407.865 107.479 407.968 107.521 408.044 107.597C408.12 107.673 408.162 107.777 408.162 107.884C408.162 107.991 408.12 108.095 408.044 108.171C407.968 108.247 407.865 108.289 407.757 108.289Z" fill="#292A2E"/>
<path d="M415.369 116.282H397.821C397.713 116.282 397.61 116.239 397.534 116.163C397.458 116.087 397.416 115.984 397.416 115.877C397.416 115.769 397.458 115.666 397.534 115.59C397.61 115.514 397.713 115.472 397.821 115.472H415.369C415.476 115.472 415.579 115.514 415.655 115.59C415.731 115.666 415.774 115.769 415.774 115.877C415.774 115.984 415.731 116.087 415.655 116.163C415.579 116.239 415.476 116.282 415.369 116.282Z" fill="#292A2E"/>
<path d="M403.247 124.275H389.716C389.609 124.275 389.506 124.232 389.43 124.156C389.354 124.08 389.311 123.977 389.311 123.869C389.311 123.762 389.354 123.659 389.43 123.583C389.506 123.507 389.609 123.464 389.716 123.464H403.247C403.354 123.464 403.457 123.507 403.533 123.583C403.609 123.659 403.652 123.762 403.652 123.869C403.652 123.977 403.609 124.08 403.533 124.156C403.457 124.232 403.354 124.275 403.247 124.275Z" fill="#292A2E"/>
<path d="M398.596 132.267H389.716C389.609 132.267 389.506 132.224 389.43 132.148C389.354 132.072 389.311 131.969 389.311 131.861C389.311 131.754 389.354 131.651 389.43 131.575C389.506 131.499 389.609 131.456 389.716 131.456H398.596C398.703 131.456 398.806 131.499 398.882 131.575C398.958 131.651 399.001 131.754 399.001 131.861C399.001 131.969 398.958 132.072 398.882 132.148C398.806 132.224 398.703 132.267 398.596 132.267Z" fill="#292A2E"/>
<path d="M432.55 74.6026V74.7485L437.615 76.6287C437.688 76.6582 437.749 76.7088 437.793 76.7738C437.836 76.8388 437.859 76.9153 437.858 76.9934V77.1312C437.86 77.1921 437.845 77.2523 437.817 77.3062C437.789 77.36 437.747 77.4058 437.696 77.4392C437.645 77.4754 437.585 77.4981 437.523 77.5052C437.46 77.5123 437.397 77.5035 437.339 77.4797L431.618 75.2429C431.546 75.2143 431.485 75.1652 431.442 75.1016C431.399 75.0381 431.375 74.9631 431.375 74.8863V74.4729C431.374 74.3958 431.397 74.3203 431.44 74.2566C431.484 74.1928 431.546 74.1439 431.618 74.1163L437.339 71.8714C437.386 71.8554 437.435 71.8472 437.485 71.847C437.56 71.8486 437.633 71.8711 437.696 71.9119C437.747 71.947 437.789 71.9942 437.817 72.0494C437.846 72.1046 437.86 72.166 437.858 72.228V72.3657C437.86 72.4431 437.837 72.5191 437.794 72.583C437.75 72.6469 437.688 72.6957 437.615 72.7223L432.55 74.6026Z" fill="#F9B572"/>
<path d="M442.591 70.218L439.56 79.4977C439.535 79.5752 439.486 79.6428 439.421 79.6908C439.355 79.7389 439.276 79.7649 439.195 79.7652C439.136 79.7661 439.078 79.7525 439.026 79.7257C438.973 79.6988 438.928 79.6595 438.895 79.6112C438.859 79.5633 438.834 79.5076 438.823 79.4486C438.812 79.3895 438.815 79.3286 438.831 79.2708L441.861 69.9992C441.887 69.9203 441.937 69.8513 442.004 69.802C442.07 69.7526 442.151 69.7252 442.234 69.7236C442.293 69.7234 442.351 69.7373 442.403 69.7641C442.455 69.7909 442.5 69.8298 442.534 69.8776C442.57 69.9255 442.594 69.9815 442.604 70.0408C442.614 70.1001 442.609 70.1609 442.591 70.218Z" fill="#F9B572"/>
<path d="M450.034 74.4729V74.8862C450.035 74.9624 450.013 75.0371 449.971 75.1007C449.929 75.1644 449.869 75.2139 449.799 75.2428L444.069 77.4797C444.012 77.5032 443.95 77.5119 443.889 77.5048C443.828 77.4977 443.77 77.4751 443.72 77.4392C443.668 77.4062 443.626 77.3607 443.596 77.3069C443.566 77.2531 443.55 77.1927 443.55 77.1312V76.9934C443.549 76.9142 443.573 76.8367 443.618 76.7714C443.663 76.7062 443.727 76.6563 443.801 76.6287L448.867 74.7484V74.6026L443.801 72.7223C443.727 72.6975 443.662 72.6495 443.617 72.5854C443.572 72.5212 443.548 72.4442 443.55 72.3657V72.2279C443.55 72.1653 443.566 72.1037 443.596 72.0486C443.625 71.9935 443.668 71.9465 443.72 71.9118C443.783 71.8712 443.856 71.8487 443.931 71.847C443.978 71.8465 444.025 71.8547 444.069 71.8713L449.799 74.1163C449.87 74.1444 449.931 74.1937 449.973 74.2575C450.015 74.3213 450.036 74.3965 450.034 74.4729Z" fill="#F9B572"/>
<path d="M335.448 0L49.9849 0L49.9849 285.463H335.448V0Z" fill="#F4F4F4"/>
<path d="M49.9849 0L46.7131 0L46.7131 285.463H49.9849L49.9849 0Z" fill="#F4F4F4"/>
<path opacity="0.05" d="M49.9849 0L46.7131 0L46.7131 285.463H49.9849L49.9849 0Z" fill="#292A2E"/>
<path opacity="0.05" d="M119.14 196.708V122.021H180.319V165.413H275.086V242.242H315.363V285.463H275.086H267.327H63.7173V196.708H119.14Z" fill="#EFC65C"/>
<path opacity="0.34" d="M172.466 130.13H127.914V138.24H172.466V130.13Z" fill="white"/>
<path opacity="0.34" d="M172.466 146.934H127.914V155.044H172.466V146.934Z" fill="white"/>
<path opacity="0.34" d="M172.466 163.738H127.914V171.848H172.466V163.738Z" fill="white"/>
<path opacity="0.34" d="M79.8284 204.579H71.6169V212.688H79.8284V204.579Z" fill="white"/>
<path opacity="0.34" d="M79.8284 221.383H71.6169V229.492H79.8284V221.383Z" fill="white"/>
<path opacity="0.34" d="M79.8284 238.188H71.6169V246.297H79.8284V238.188Z" fill="white"/>
<path opacity="0.34" d="M95.0197 204.579H86.8081V212.688H95.0197V204.579Z" fill="white"/>
<path opacity="0.34" d="M95.0197 221.383H86.8081V229.492H95.0197V221.383Z" fill="white"/>
<path opacity="0.34" d="M95.0197 238.188H86.8081V246.297H95.0197V238.188Z" fill="white"/>
<path opacity="0.34" d="M109.801 204.579H101.589V212.688H109.801V204.579Z" fill="white"/>
<path opacity="0.34" d="M109.801 221.383H101.589V229.492H109.801V221.383Z" fill="white"/>
<path opacity="0.34" d="M109.801 238.188H101.589V246.297H109.801V238.188Z" fill="white"/>
<path d="M49.9849 141.131H107.425V0L112.175 0V141.131H267.327V0L272.077 0V141.131H335.448V145.881H272.077V285.463H267.327V145.881H112.175V285.463H107.425V145.881H49.9849V141.131Z" fill="white"/>
<path d="M346.82 285.119H38.6134V294.612H346.82V285.119Z" fill="#F4F4F4"/>
<path opacity="0.1" d="M346.82 285.119H38.6134V294.612H346.82V285.119Z" fill="#292A2E"/>
<path opacity="0.1" d="M38.6134 285.119H34.1632V294.612H38.6134V285.119Z" fill="#292A2E"/>
<path opacity="0.1" d="M38.6134 285.119H34.1632V294.612H38.6134V285.119Z" fill="#292A2E"/>
<path d="M46.7132 12.1536L335.448 12.1536V5.09536L46.7132 5.09536V12.1536Z" fill="white"/>
<path d="M46.7132 25.3381L335.448 25.3381V18.2799L46.7132 18.2799V25.3381Z" fill="white"/>
<path d="M46.7132 38.5219L335.448 38.5219V31.4636L46.7132 31.4636V38.5219Z" fill="white"/>
<path d="M46.7132 51.7055L335.448 51.7055V44.6472L46.7132 44.6472V51.7055Z" fill="white"/>
<path d="M46.7132 64.8884L335.448 64.8884V57.8302L46.7132 57.8302V64.8884Z" fill="white"/>
<path d="M77.38 72.8495H81.707L81.707 -7.62939e-06H77.38L77.38 72.8495Z" fill="white"/>
<path d="M79.1768 83.3118C82.46 83.3118 85.1215 80.6502 85.1215 77.3671C85.1215 74.0839 82.46 71.4224 79.1768 71.4224C75.8936 71.4224 73.2321 74.0839 73.2321 77.3671C73.2321 80.6502 75.8936 83.3118 79.1768 83.3118Z" fill="white"/>
<path d="M49.2336 682.256L47.6419 681.949L72.5197 434.735L74.1114 435.041L49.2336 682.256Z" fill="#494949"/>
<path d="M141.867 682.256L140.276 681.949L165.152 434.735L166.744 435.041L141.867 682.256Z" fill="#494949"/>
<path d="M346.628 682.256L348.219 681.949L323.342 434.735L321.75 435.041L346.628 682.256Z" fill="#494949"/>
<path d="M253.994 682.256L255.586 681.949L230.709 434.735L229.117 435.041L253.994 682.256Z" fill="#494949"/>
<path d="M221.003 325.935L219.396 326.15L233.929 434.997L235.536 434.783L221.003 325.935Z" fill="#494949"/>
<path d="M54.1908 325.934L52.5842 326.148L67.1172 434.996L68.7239 434.782L54.1908 325.934Z" fill="#494949"/>
<path d="M235.396 426.917H72.2344C67.8322 426.917 64.2635 430.486 64.2635 434.888V434.889C64.2635 439.291 67.8322 442.86 72.2344 442.86H235.396C239.798 442.86 243.366 439.291 243.366 434.889V434.888C243.366 430.486 239.798 426.917 235.396 426.917Z" fill="#292A2E"/>
<path opacity="0.8" d="M235.396 426.917H72.2344C67.8322 426.917 64.2635 430.486 64.2635 434.888V434.889C64.2635 439.291 67.8322 442.86 72.2344 442.86H235.396C239.798 442.86 243.366 439.291 243.366 434.889V434.888C243.366 430.486 239.798 426.917 235.396 426.917Z" fill="white"/>
<path d="M235.396 443.669H72.2352C71.082 443.669 69.9402 443.442 68.8748 443.001C67.8094 442.56 66.8413 441.913 66.0259 441.097C65.2105 440.282 64.5637 439.314 64.1224 438.248C63.6811 437.183 63.4539 436.041 63.4539 434.888C63.4539 433.735 63.6811 432.593 64.1224 431.528C64.5637 430.462 65.2105 429.494 66.0259 428.679C66.8413 427.863 67.8094 427.216 68.8748 426.775C69.9402 426.334 71.082 426.107 72.2352 426.107H235.396C236.549 426.107 237.691 426.334 238.756 426.775C239.821 427.216 240.79 427.863 241.605 428.679C242.42 429.494 243.067 430.462 243.508 431.528C243.95 432.593 244.177 433.735 244.177 434.888C244.177 436.041 243.95 437.183 243.508 438.248C243.067 439.314 242.42 440.282 241.605 441.097C240.79 441.913 239.821 442.56 238.756 443.001C237.691 443.442 236.549 443.669 235.396 443.669ZM72.2352 427.728C71.2949 427.728 70.3638 427.913 69.4951 428.273C68.6263 428.633 67.837 429.16 67.1721 429.825C66.5072 430.49 65.9797 431.279 65.6199 432.148C65.26 433.017 65.0748 433.948 65.0748 434.888C65.0748 435.828 65.26 436.759 65.6199 437.628C65.9797 438.497 66.5072 439.286 67.1721 439.951C67.837 440.616 68.6263 441.144 69.4951 441.503C70.3638 441.863 71.2949 442.048 72.2352 442.048H235.396C236.336 442.048 237.267 441.863 238.136 441.503C239.005 441.144 239.794 440.616 240.459 439.951C241.124 439.286 241.651 438.497 242.011 437.628C242.371 436.759 242.556 435.828 242.556 434.888C242.556 433.948 242.371 433.017 242.011 432.148C241.651 431.279 241.124 430.49 240.459 429.825C239.794 429.16 239.005 428.633 238.136 428.273C237.267 427.913 236.336 427.728 235.396 427.728H72.2352Z" fill="#292A2E"/>
<path d="M324.948 426.917H161.787C157.384 426.917 153.816 430.486 153.816 434.888V434.889C153.816 439.291 157.384 442.86 161.787 442.86H324.948C329.35 442.86 332.919 439.291 332.919 434.889V434.888C332.919 430.486 329.35 426.917 324.948 426.917Z" fill="white"/>
<path d="M324.948 443.669H161.787C160.633 443.669 159.492 443.442 158.426 443.001C157.361 442.56 156.393 441.913 155.577 441.097C154.762 440.282 154.115 439.314 153.674 438.248C153.233 437.183 153.005 436.041 153.005 434.888C153.005 433.735 153.233 432.593 153.674 431.528C154.115 430.462 154.762 429.494 155.577 428.679C156.393 427.863 157.361 427.216 158.426 426.775C159.492 426.334 160.633 426.107 161.787 426.107H324.948C326.101 426.107 327.243 426.334 328.308 426.775C329.374 427.216 330.342 427.863 331.157 428.679C331.973 429.494 332.619 430.462 333.061 431.528C333.502 432.593 333.729 433.735 333.729 434.888C333.729 436.041 333.502 437.183 333.061 438.248C332.619 439.314 331.973 440.282 331.157 441.097C330.342 441.913 329.374 442.56 328.308 443.001C327.243 443.442 326.101 443.669 324.948 443.669ZM161.787 427.728C160.846 427.728 159.915 427.913 159.047 428.273C158.178 428.633 157.388 429.16 156.724 429.825C156.059 430.49 155.531 431.279 155.171 432.148C154.811 433.017 154.626 433.948 154.626 434.888C154.626 435.828 154.811 436.759 155.171 437.628C155.531 438.497 156.059 439.286 156.724 439.951C157.388 440.616 158.178 441.144 159.047 441.503C159.915 441.863 160.846 442.048 161.787 442.048H324.948C325.888 442.048 326.819 441.863 327.688 441.503C328.557 441.144 329.346 440.616 330.011 439.951C330.676 439.286 331.203 438.497 331.563 437.628C331.923 436.759 332.108 435.828 332.108 434.888C332.108 433.948 331.923 433.017 331.563 432.148C331.203 431.279 330.676 430.49 330.011 429.825C329.346 429.16 328.557 428.633 327.688 428.273C326.819 427.913 325.888 427.728 324.948 427.728H161.787Z" fill="#292A2E"/>
<path d="M212.064 326.04H53.8249C51.2377 326.04 48.739 325.099 46.795 323.391C44.8511 321.684 43.5948 319.328 43.2606 316.762L32.7936 236.382C32.5979 234.879 32.7251 233.352 33.1666 231.903C33.6081 230.453 34.3537 229.114 35.3538 227.976C36.3538 226.837 37.5852 225.925 38.9657 225.301C40.3462 224.676 41.8442 224.353 43.3595 224.353H201.597C204.184 224.353 206.683 225.295 208.627 227.002C210.571 228.709 211.827 231.065 212.161 233.63L222.628 314.012C222.823 315.514 222.696 317.041 222.255 318.49C221.814 319.94 221.068 321.278 220.069 322.417C219.069 323.555 217.838 324.468 216.457 325.092C215.077 325.717 213.579 326.04 212.064 326.04Z" fill="#292A2E"/>
<path opacity="0.8" d="M212.064 326.04H53.8249C51.2377 326.04 48.739 325.099 46.795 323.391C44.8511 321.684 43.5948 319.328 43.2606 316.762L32.7936 236.382C32.5979 234.879 32.7251 233.352 33.1666 231.903C33.6081 230.453 34.3537 229.114 35.3538 227.976C36.3538 226.837 37.5852 225.925 38.9657 225.301C40.3462 224.676 41.8442 224.353 43.3595 224.353H201.597C204.184 224.353 206.683 225.295 208.627 227.002C210.571 228.709 211.827 231.065 212.161 233.63L222.628 314.012C222.823 315.514 222.696 317.041 222.255 318.49C221.814 319.94 221.068 321.278 220.069 322.417C219.069 323.555 217.838 324.468 216.457 325.092C215.077 325.717 213.579 326.04 212.064 326.04Z" fill="white"/>
<path d="M212.064 326.851H53.8249C51.0425 326.845 48.3569 325.829 46.2663 323.993C44.1757 322.157 42.8221 319.625 42.4566 316.867L31.9904 236.487C31.7796 234.87 31.9163 233.226 32.3912 231.666C32.8662 230.106 33.6684 228.666 34.7445 227.44C35.8206 226.215 37.1457 225.234 38.6313 224.561C40.1169 223.889 41.7288 223.542 43.3595 223.542H201.597C204.379 223.548 207.065 224.563 209.156 226.399C211.246 228.236 212.599 230.768 212.965 233.526L223.432 313.907C223.642 315.524 223.506 317.167 223.031 318.727C222.556 320.286 221.754 321.727 220.678 322.952C219.602 324.177 218.277 325.158 216.792 325.831C215.306 326.503 213.695 326.851 212.064 326.851ZM43.3595 225.163C41.9596 225.163 40.5758 225.461 39.3005 226.039C38.0252 226.616 36.8877 227.459 35.9639 228.511C35.0402 229.563 34.3514 230.799 33.9436 232.138C33.5358 233.478 33.4184 234.888 33.5991 236.277L44.0662 316.658C44.3797 319.026 45.5418 321.2 47.3367 322.777C49.1317 324.353 51.4376 325.225 53.8265 325.23H212.064C213.464 325.23 214.847 324.931 216.122 324.353C217.397 323.776 218.535 322.933 219.458 321.881C220.382 320.829 221.07 319.593 221.478 318.254C221.885 316.915 222.003 315.504 221.822 314.116L211.357 233.736C211.044 231.368 209.882 229.194 208.087 227.617C206.292 226.041 203.986 225.169 201.597 225.164L43.3595 225.163Z" fill="#292A2E"/>
<path d="M221.012 326.04H62.7724C60.1852 326.04 57.6866 325.099 55.7428 323.391C53.799 321.684 52.5429 319.328 52.2089 316.762L41.7386 236.382C41.543 234.879 41.6701 233.353 42.1115 231.903C42.5529 230.454 43.2984 229.115 44.2982 227.977C45.2981 226.838 46.5293 225.926 47.9096 225.301C49.29 224.676 50.7877 224.353 52.3029 224.353H210.545C213.132 224.353 215.631 225.295 217.575 227.002C219.519 228.709 220.775 231.065 221.109 233.63L231.576 314.012C231.772 315.514 231.644 317.041 231.203 318.49C230.762 319.94 230.016 321.279 229.016 322.417C228.016 323.555 226.785 324.468 225.405 325.092C224.025 325.717 222.527 326.04 221.012 326.04Z" fill="white"/>
<path d="M221.012 326.851H62.7724C59.9901 326.845 57.3046 325.829 55.2141 323.993C53.1237 322.157 51.7702 319.625 51.4049 316.867L40.9378 236.487C40.7274 234.87 40.8642 233.226 41.3392 231.667C41.8142 230.107 42.6164 228.666 43.6923 227.441C44.7683 226.216 46.0931 225.235 47.5785 224.562C49.0639 223.89 50.6756 223.542 52.3061 223.542H210.545C213.327 223.548 216.013 224.564 218.103 226.4C220.194 228.236 221.547 230.768 221.913 233.526L232.38 313.907C232.59 315.524 232.453 317.167 231.978 318.727C231.503 320.286 230.701 321.727 229.625 322.952C228.549 324.177 227.224 325.158 225.739 325.831C224.254 326.503 222.642 326.851 221.012 326.851ZM52.3061 225.163C50.9065 225.163 49.523 225.463 48.2481 226.04C46.9732 226.618 45.8361 227.461 44.9127 228.512C43.9894 229.564 43.3009 230.801 42.8933 232.14C42.4857 233.479 42.3683 234.889 42.549 236.277L53.012 316.658C53.3259 319.026 54.4881 321.2 56.2829 322.776C58.0778 324.352 60.3835 325.224 62.7724 325.23H221.012C222.412 325.23 223.795 324.931 225.071 324.354C226.346 323.777 227.483 322.934 228.407 321.882C229.331 320.83 230.02 319.593 230.428 318.254C230.835 316.915 230.953 315.504 230.772 314.116L220.305 233.736C219.991 231.368 218.829 229.193 217.034 227.617C215.239 226.041 212.934 225.169 210.545 225.164L52.3061 225.163Z" fill="#292A2E"/>
<path d="M344.016 344.393L342.403 344.556L376.57 682.8L378.182 682.637L344.016 344.393Z" fill="#494949"/>
<path d="M203.959 100.953C203.959 100.953 214.474 93.0161 217.079 74.7468C219.097 60.6019 206.048 69.7657 206.048 69.7657C206.048 69.7657 207.402 59.5661 199.97 60.5784C192.538 61.5907 188.38 72.3049 188.38 72.3049" fill="#0C0C0C"/>
<path d="M161.563 61.7722C161.563 61.7722 124.691 65.7281 138.021 115.688L141.284 115.907L147.907 116.351" fill="#0C0C0C"/>
<path d="M197.783 167.867C197.621 167.846 195.822 197.692 161.146 195.092C137.14 193.294 128.581 167.825 128.03 167.825C130.619 167.275 133.817 166.44 135.089 166.153C137.859 165.51 140.368 164.039 142.281 161.935C144.195 159.831 145.423 157.195 145.801 154.376C146.504 150.145 145.315 128.5 145.679 124.219L182.528 132.443C182.013 141.485 178.409 162.444 191.038 166.153C193.143 166.767 195.406 167.331 197.783 167.867Z" fill="#E98862"/>
<path opacity="0.52" d="M183.046 157.588C182.469 155.727 182.097 153.809 181.937 151.868C181.533 147.439 181.614 142.978 182.18 138.566C174.691 137.556 167.635 134.464 161.814 129.644C161.13 132.171 157.367 143.213 158.41 145.614C160.376 150.154 169.629 157.588 183.046 157.588Z" fill="#0C0C0C"/>
<path d="M175.441 151.68C160.903 150.376 143.503 141.191 143.252 121.458L143.026 103.652C142.775 83.9188 152.936 67.7899 171.516 67.5532C190.096 67.3174 204.187 83.1375 204.438 102.871L204.538 110.754C204.525 113.461 204.328 116.164 203.948 118.845C202.994 125.936 201.516 136.718 196.705 144.011C192.159 150.897 184.728 152.513 175.441 151.68Z" fill="#E98862"/>
<path d="M182.185 133.644C185.185 133.78 188.175 133.209 190.914 131.977C190.97 131.953 191.022 131.918 191.065 131.874C191.108 131.83 191.142 131.778 191.165 131.721C191.188 131.664 191.199 131.603 191.199 131.541C191.198 131.48 191.185 131.419 191.161 131.362C191.137 131.306 191.102 131.254 191.058 131.211C191.014 131.168 190.962 131.134 190.905 131.111C190.847 131.088 190.786 131.077 190.725 131.077C190.663 131.078 190.602 131.091 190.546 131.115C184.646 133.631 179.288 133.263 175.052 130.049C174.967 129.981 174.878 129.918 174.786 129.86C174.679 129.811 174.558 129.803 174.446 129.839C174.335 129.874 174.24 129.951 174.182 130.052C174.123 130.154 174.105 130.274 174.13 130.388C174.156 130.503 174.223 130.604 174.32 130.671C174.354 130.692 174.408 130.735 174.482 130.794C176.709 132.49 179.391 133.482 182.185 133.644Z" fill="#0C0C0C"/>
<path d="M182.045 138.088C182.587 138.122 183.131 138.109 183.671 138.049C183.794 138.036 183.908 137.974 183.986 137.878C184.064 137.781 184.1 137.657 184.087 137.534C184.074 137.41 184.013 137.297 183.916 137.219C183.819 137.141 183.695 137.104 183.572 137.117C180.324 137.462 178.775 135.974 178.709 135.91C178.621 135.822 178.502 135.773 178.378 135.773C178.253 135.773 178.134 135.822 178.046 135.91C177.958 135.997 177.909 136.117 177.908 136.241C177.908 136.365 177.958 136.485 178.045 136.573C179.163 137.525 180.577 138.06 182.045 138.088Z" fill="#0C0C0C"/>
<path d="M198.302 114.548C199.566 114.548 200.591 113.524 200.591 112.26C200.591 110.996 199.566 109.971 198.302 109.971C197.038 109.971 196.013 110.996 196.013 112.26C196.013 113.524 197.038 114.548 198.302 114.548Z" fill="#0C0C0C"/>
<path d="M175.943 113.145C177.207 113.145 178.232 112.121 178.232 110.857C178.232 109.593 177.207 108.568 175.943 108.568C174.679 108.568 173.654 109.593 173.654 110.857C173.654 112.121 174.679 113.145 175.943 113.145Z" fill="#0C0C0C"/>
<path d="M144.483 127.455C138.836 127.527 134.183 121.544 134.109 115.898C134.035 110.251 138.574 107.079 144.221 107.008L147.178 110.754L149.336 127.393L144.483 127.455Z" fill="#E98862"/>
<path d="M150.097 118.382C150.097 118.382 152.004 90.4592 160.471 88.7345C166.11 87.5861 179.785 95.5853 192.45 93.1693C197.992 92.1157 203.253 93.4838 203.788 96.1016C203.999 97.1381 207.452 82.2428 198.774 70.9417C191.865 61.9416 169.255 59.4008 158.969 62.3509C130.487 70.5219 143.055 108.237 143.055 108.237L144.325 117.863L150.097 118.382Z" fill="#0C0C0C"/>
<path d="M185.595 127.053H185.631C187.451 127.034 190.5 126.801 190.488 125.439C190.476 124.311 187.267 112.168 186.9 110.787C186.864 110.672 186.786 110.576 186.681 110.518C186.577 110.459 186.453 110.444 186.337 110.475C186.222 110.505 186.122 110.58 186.06 110.682C185.998 110.785 185.978 110.908 186.004 111.025C187.43 116.403 189.553 124.682 189.562 125.451C189.386 125.775 187.507 126.109 185.622 126.128C185.503 126.131 185.39 126.179 185.306 126.262C185.221 126.346 185.172 126.459 185.169 126.578C185.165 126.697 185.207 126.812 185.287 126.901C185.366 126.989 185.476 127.044 185.595 127.054V127.053Z" fill="#0C0C0C"/>
<path d="M191.806 99.8483C193.718 99.3219 195.737 99.3219 197.649 99.8483C198.589 100.101 199.485 100.493 200.308 101.012C201.121 101.52 201.867 102.129 202.528 102.824C202.654 102.947 202.728 103.114 202.732 103.29C202.737 103.467 202.673 103.638 202.553 103.767C202.433 103.896 202.267 103.973 202.091 103.982C201.915 103.991 201.743 103.93 201.611 103.813L201.57 103.777C200.958 103.211 200.277 102.724 199.543 102.327C198.824 101.933 198.049 101.65 197.244 101.488C195.661 101.156 194.018 101.248 192.481 101.754L192.416 101.777C192.163 101.867 191.884 101.852 191.641 101.736C191.399 101.62 191.212 101.413 191.122 101.159C191.033 100.906 191.048 100.627 191.163 100.384C191.279 100.142 191.487 99.9549 191.74 99.8653L191.806 99.8483Z" fill="#0C0C0C"/>
<path d="M178.265 100.998C176.81 100.291 175.194 99.9811 173.58 100.1C172.762 100.153 171.955 100.33 171.19 100.625C170.411 100.92 169.673 101.312 168.992 101.792L168.948 101.821C168.802 101.915 168.625 101.948 168.455 101.915C168.284 101.882 168.133 101.784 168.033 101.643C167.932 101.501 167.89 101.326 167.916 101.154C167.941 100.983 168.031 100.827 168.168 100.72C168.916 100.119 169.736 99.6149 170.61 99.2194C171.495 98.8153 172.435 98.5459 173.4 98.4202C175.365 98.1522 177.367 98.4205 179.192 99.1967C179.439 99.3041 179.634 99.5054 179.732 99.7562C179.831 100.007 179.826 100.287 179.719 100.534C179.611 100.781 179.41 100.975 179.159 101.074C178.909 101.173 178.629 101.168 178.382 101.061L178.326 101.034L178.265 100.998Z" fill="#0C0C0C"/>
<path d="M189.084 80.6276C193.264 79.7543 195.61 74.0597 194.325 67.9082C193.04 61.7566 188.61 57.4777 184.43 58.3509C180.251 59.2241 177.904 64.9188 179.19 71.0703C180.475 77.2218 184.905 81.5008 189.084 80.6276Z" fill="#0C0C0C"/>
<path d="M422.184 640.05C422.184 640.05 426.53 662.575 447.619 663.83C468.709 665.085 464.137 681.887 464.137 681.887H383.542V641.62L422.184 640.05Z" fill="#F9B572"/>
<path d="M268.855 625.828C268.855 625.828 262.812 647.958 281.182 658.393C299.553 668.829 288.032 681.887 288.032 681.887L215.714 646.308L233.488 610.176L268.855 625.828Z" fill="#F9B572"/>
<path d="M224.064 619.577L285.05 427.182H174.504C152.297 427.182 143.04 408.351 143.04 386.146C143.04 363.941 164.871 344.476 187.075 344.476H336.272C349.816 344.476 365.002 352.759 372.436 364.081C379.869 375.403 377.859 392.947 372.474 405.374L274.814 642.568" fill="#262626"/>
<path opacity="0.8" d="M224.064 619.577L285.05 427.182H174.504C152.297 427.182 143.04 408.351 143.04 386.146C143.04 363.941 164.871 344.476 187.075 344.476H336.272C349.816 344.476 365.002 352.759 372.436 364.081C379.869 375.403 377.859 392.947 372.474 405.374L274.814 642.568" fill="#0A0A0A"/>
<path d="M378.907 660.968L276.933 427.182L143.038 427.173C111.665 424.714 97.2962 407.52 97.7533 385.32C98.2039 363.401 109.302 341.751 131.122 341.751H311.588C327.733 342.083 340.434 359.924 346.423 374.919L431.197 646.656" fill="#262626"/>
<path d="M88.6211 342.019C88.6211 342.019 82.6747 380.796 92.1004 402.355C103.867 429.271 147.979 427.173 147.979 427.173L145.493 341.751L88.6211 342.019Z" fill="#262626"/>
<path d="M350.26 341.257L255.68 321.658C251.739 320.842 248.067 319.044 245.005 316.432C241.943 313.82 239.589 310.478 238.161 306.715L200.961 208.688C199.828 205.746 199.288 202.609 199.371 199.458C199.454 196.306 200.159 193.202 201.445 190.324C202.732 187.446 204.574 184.85 206.866 182.686C209.159 180.522 211.856 178.832 214.803 177.714C217.751 176.595 220.89 176.07 224.041 176.169C227.192 176.267 230.293 176.987 233.164 178.287C236.036 179.587 238.623 181.442 240.776 183.745C242.929 186.047 244.606 188.753 245.71 191.706L278.252 277.452L359.974 294.386C359.974 294.386 351.9 341.596 350.26 341.257Z" fill="#F9B572"/>
<path d="M240.868 233.581C239.776 246.413 232.034 326.468 230.98 342.273H88.6835C87.8657 328.018 85.2115 267.495 82.1107 239.62C79.1517 213.019 78.0778 197.839 81.4866 189.573C87.4986 174.993 102.543 169.747 115.502 167.992C123.415 166.922 135.316 166.153 135.316 166.153C135.316 166.153 136.325 186.539 160.353 187.674C193.062 189.213 190.878 166.153 191.04 166.153C196.339 166.153 225.183 170.007 232.395 174.708C242.583 181.348 245.593 190.396 245.712 198.709C245.849 208.281 242.106 219.028 240.868 233.581Z" fill="#F9B572"/>
<path d="M235.276 298.995H235.242C235.189 298.99 235.137 298.975 235.09 298.951C235.042 298.927 235 298.893 234.966 298.853C234.931 298.812 234.905 298.765 234.889 298.714C234.873 298.663 234.867 298.61 234.871 298.557L238.565 254.181C238.568 254.128 238.582 254.075 238.606 254.027C238.63 253.979 238.663 253.937 238.704 253.902C238.745 253.867 238.793 253.841 238.844 253.826C238.895 253.81 238.949 253.805 239.002 253.811C239.055 253.815 239.107 253.83 239.154 253.854C239.202 253.879 239.244 253.912 239.278 253.953C239.312 253.994 239.339 254.041 239.355 254.091C239.371 254.142 239.377 254.195 239.373 254.248L235.679 298.624C235.67 298.725 235.624 298.819 235.549 298.888C235.475 298.956 235.377 298.994 235.276 298.995Z" fill="#0C0C0C"/>
<path d="M303.045 325.628L334.267 229.65C334.816 227.964 335.884 226.494 337.319 225.452C338.754 224.41 340.482 223.848 342.256 223.848H477.563C478.889 223.848 480.197 224.162 481.378 224.764C482.559 225.366 483.582 226.239 484.361 227.312C485.14 228.385 485.654 229.627 485.861 230.937C486.068 232.247 485.962 233.587 485.552 234.848L446.225 330.829C445.677 332.515 444.608 333.985 443.173 335.027C441.738 336.069 440.01 336.631 438.237 336.631H311.034C309.708 336.631 308.4 336.317 307.218 335.715C306.036 335.113 305.014 334.239 304.235 333.166C303.455 332.092 302.941 330.85 302.735 329.54C302.528 328.23 302.634 326.889 303.045 325.628Z" fill="#292A2E"/>
<path d="M303.045 325.628L334.267 229.65C334.816 227.964 335.884 226.494 337.319 225.452C338.754 224.41 340.482 223.848 342.256 223.848H477.563C478.889 223.848 480.197 224.162 481.378 224.764C482.559 225.366 483.582 226.239 484.361 227.312C485.14 228.385 485.654 229.627 485.861 230.937C486.068 232.247 485.962 233.587 485.552 234.848L446.225 330.829C445.677 332.515 444.608 333.985 443.173 335.027C441.738 336.069 440.01 336.631 438.237 336.631H311.034C309.708 336.631 308.4 336.317 307.218 335.715C306.036 335.113 305.014 334.239 304.235 333.166C303.455 332.092 302.941 330.85 302.735 329.54C302.528 328.23 302.634 326.889 303.045 325.628Z" fill="#292A2E"/>
<path d="M328.515 328.845H243.365C241.243 328.845 239.523 330.565 239.523 332.686V332.785C239.523 334.907 241.243 336.627 243.365 336.627H328.515C330.636 336.627 332.356 334.907 332.356 332.785V332.686C332.356 330.565 330.636 328.845 328.515 328.845Z" fill="#292A2E"/>
<path d="M328.515 328.845H243.365C241.243 328.845 239.523 330.565 239.523 332.686V332.785C239.523 334.907 241.243 336.627 243.365 336.627H328.515C330.636 336.627 332.356 334.907 332.356 332.785V332.686C332.356 330.565 330.636 328.845 328.515 328.845Z" fill="#292A2E"/>
<path d="M390.246 298.261C397.614 298.261 403.587 292.288 403.587 284.92C403.587 277.552 397.614 271.579 390.246 271.579C382.878 271.579 376.905 277.552 376.905 284.92C376.905 292.288 382.878 298.261 390.246 298.261Z" fill="white"/>
<path d="M295.93 303.148L274.679 295.699L277.73 295.488C278.713 295.401 279.627 294.943 280.286 294.208C280.945 293.472 281.3 292.514 281.279 291.527C281.251 291.018 281.119 290.52 280.892 290.063C280.665 289.607 280.348 289.201 279.959 288.872C279.57 288.542 279.118 288.295 278.63 288.146C278.143 287.996 277.63 287.948 277.123 288.004L239.525 291.999L240.498 304.081C240.801 307.834 242.219 311.411 244.568 314.353C246.917 317.294 250.092 319.468 253.684 320.594L269.966 325.666C270.807 325.946 271.719 325.927 272.547 325.612C273.376 325.297 274.07 324.705 274.512 323.937C274.896 323.235 275.047 322.428 274.94 321.635C274.834 320.842 274.477 320.103 273.922 319.527C273.958 319.502 273.988 319.469 274.011 319.431C274.034 319.394 274.049 319.352 274.055 319.308C274.062 319.264 274.059 319.22 274.047 319.177C274.035 319.135 274.015 319.095 273.988 319.06L276.986 320.001C277.922 320.316 278.943 320.263 279.841 319.854C280.74 319.444 281.449 318.709 281.826 317.797C282.135 316.969 282.141 316.06 281.845 315.228C281.548 314.396 280.968 313.695 280.205 313.249C280.241 313.231 280.272 313.205 280.298 313.175L281.531 313.561C282.372 313.842 283.284 313.822 284.113 313.507C284.941 313.192 285.635 312.6 286.077 311.832C286.543 310.981 286.662 309.982 286.408 309.045C286.154 308.109 285.548 307.307 284.716 306.807C284.723 306.782 284.726 306.757 284.727 306.731L293.577 309.832C294.017 309.992 294.484 310.062 294.952 310.04C295.419 310.017 295.877 309.902 296.3 309.702C296.723 309.501 297.101 309.218 297.414 308.87C297.727 308.523 297.968 308.116 298.123 307.674C298.277 307.233 298.343 306.765 298.316 306.298C298.289 305.831 298.169 305.374 297.964 304.953C297.759 304.532 297.473 304.157 297.122 303.847C296.771 303.538 296.362 303.301 295.919 303.151L295.93 303.148Z" fill="#E98862"/>
<path opacity="0.2" d="M284.392 307.074C284.35 307.073 284.31 307.066 284.271 307.053L275.711 303.94C275.623 303.907 275.551 303.842 275.512 303.757C275.473 303.672 275.469 303.575 275.501 303.487C275.533 303.399 275.599 303.327 275.684 303.288C275.769 303.248 275.866 303.244 275.954 303.277L284.515 306.39C284.593 306.418 284.658 306.473 284.7 306.545C284.741 306.617 284.756 306.701 284.742 306.782C284.727 306.864 284.685 306.938 284.621 306.991C284.557 307.045 284.477 307.074 284.394 307.074H284.392Z" fill="#0A0A0A"/>
<path opacity="0.2" d="M280.063 313.297C280.023 313.297 279.983 313.29 279.945 313.277L273.198 310.883C273.153 310.868 273.112 310.845 273.076 310.814C273.041 310.783 273.012 310.746 272.991 310.703C272.97 310.661 272.958 310.615 272.955 310.568C272.953 310.522 272.959 310.475 272.975 310.43C272.991 310.386 273.015 310.345 273.047 310.311C273.078 310.276 273.117 310.248 273.159 310.228C273.202 310.208 273.248 310.197 273.295 310.196C273.342 310.194 273.389 310.202 273.433 310.218L280.18 312.612C280.259 312.64 280.325 312.695 280.367 312.766C280.409 312.838 280.424 312.922 280.41 313.004C280.396 313.086 280.353 313.161 280.29 313.214C280.226 313.268 280.146 313.297 280.063 313.297Z" fill="#0A0A0A"/>
<path opacity="0.2" d="M273.709 319.613C273.666 319.613 273.623 319.605 273.583 319.59L270.423 318.384C270.335 318.351 270.265 318.284 270.226 318.199C270.188 318.113 270.186 318.016 270.219 317.929C270.253 317.842 270.319 317.771 270.405 317.733C270.49 317.695 270.587 317.692 270.675 317.726L273.835 318.931C273.913 318.96 273.977 319.015 274.018 319.087C274.059 319.159 274.073 319.243 274.058 319.324C274.043 319.406 274 319.479 273.936 319.532C273.872 319.585 273.792 319.613 273.71 319.613H273.709Z" fill="#0A0A0A"/>
<path d="M256.166 284.849L167.016 284.789L133.29 202.517L82.9783 223.67L125.056 321.313L125.466 322.286C127.525 327.032 130.993 331.031 135.4 333.74C139.807 336.45 144.94 337.739 150.104 337.434L257.513 331.089L256.166 284.849Z" fill="#F9B572"/>
<path d="M148.629 337.882C143.631 337.874 138.744 336.409 134.565 333.668C130.386 330.927 127.096 327.027 125.097 322.446L124.685 321.474L88.8281 238.277L89.5721 237.953L125.84 322.128C127.875 326.79 131.289 330.717 135.623 333.382C139.957 336.046 145.002 337.319 150.081 337.03L257.096 330.708L255.77 285.255L166.743 285.195L140.808 221.937L141.559 221.63L167.285 284.385L256.557 284.446L257.929 331.471L257.536 331.494L150.131 337.838C149.629 337.868 149.126 337.882 148.629 337.882Z" fill="#606060"/>
<path d="M49.4665 344.398L15.2762 682.639L16.8889 682.802L51.0792 344.561L49.4665 344.398Z" fill="#494949"/>
<path d="M190.728 344.398L156.537 682.639L158.15 682.802L192.34 344.561L190.728 344.398Z" fill="#494949"/>
<path d="M485.276 344.393L483.664 344.556L517.83 682.8L519.443 682.637L485.276 344.393Z" fill="#494949"/>
<path d="M516.086 337.835H20.8944C17.2268 337.835 14.2535 340.808 14.2535 344.476C14.2535 348.143 17.2268 351.116 20.8944 351.116H516.086C519.754 351.116 522.727 348.143 522.727 344.476C522.727 340.808 519.754 337.835 516.086 337.835Z" fill="#292A2E"/>
<path opacity="0.8" d="M516.086 337.835H20.8944C17.2268 337.835 14.2535 340.808 14.2535 344.476C14.2535 348.143 17.2268 351.116 20.8944 351.116H516.086C519.754 351.116 522.727 348.143 522.727 344.476C522.727 340.808 519.754 337.835 516.086 337.835Z" fill="white"/>
<path d="M516.087 351.926H20.8976C19.9126 351.937 18.9354 351.752 18.0224 351.382C17.1094 351.012 16.2788 350.465 15.5786 349.772C14.8784 349.079 14.3226 348.254 13.9432 347.345C13.5639 346.436 13.3686 345.461 13.3686 344.476C13.3686 343.49 13.5639 342.515 13.9432 341.606C14.3226 340.697 14.8784 339.872 15.5786 339.179C16.2788 338.486 17.1094 337.939 18.0224 337.569C18.9354 337.199 19.9126 337.014 20.8976 337.025H516.087C517.072 337.014 518.049 337.199 518.962 337.569C519.875 337.939 520.706 338.486 521.406 339.179C522.106 339.872 522.662 340.697 523.041 341.606C523.421 342.515 523.616 343.49 523.616 344.476C523.616 345.461 523.421 346.436 523.041 347.345C522.662 348.254 522.106 349.079 521.406 349.772C520.706 350.465 519.875 351.012 518.962 351.382C518.049 351.752 517.072 351.937 516.087 351.926ZM20.8976 338.645C20.1263 338.636 19.3607 338.78 18.6454 339.069C17.9301 339.358 17.2792 339.786 16.7305 340.329C16.1818 340.871 15.7462 341.517 15.4489 342.228C15.1516 342.94 14.9985 343.704 14.9985 344.476C14.9985 345.247 15.1516 346.011 15.4489 346.723C15.7462 347.434 16.1818 348.08 16.7305 348.622C17.2792 349.165 17.9301 349.593 18.6454 349.882C19.3607 350.171 20.1263 350.315 20.8976 350.306H516.087C516.858 350.315 517.624 350.171 518.339 349.882C519.054 349.593 519.705 349.165 520.254 348.622C520.803 348.08 521.238 347.434 521.536 346.723C521.833 346.011 521.986 345.247 521.986 344.476C521.986 343.704 521.833 342.94 521.536 342.228C521.238 341.517 520.803 340.871 520.254 340.329C519.705 339.786 519.054 339.358 518.339 339.069C517.624 338.78 516.858 338.636 516.087 338.645H20.8976Z" fill="#292A2E"/>
<path d="M516.086 337.835H167.556C163.888 337.835 160.915 340.808 160.915 344.476C160.915 348.143 163.888 351.116 167.556 351.116H516.086C519.754 351.116 522.727 348.143 522.727 344.476C522.727 340.808 519.754 337.835 516.086 337.835Z" fill="white"/>
<path d="M516.087 351.926H167.556C165.593 351.906 163.718 351.112 162.337 349.717C160.956 348.322 160.182 346.438 160.182 344.476C160.182 342.513 160.956 340.629 162.337 339.234C163.718 337.839 165.593 337.045 167.556 337.025H516.087C517.072 337.014 518.049 337.199 518.962 337.569C519.875 337.939 520.706 338.486 521.406 339.179C522.106 339.872 522.662 340.697 523.041 341.606C523.421 342.515 523.616 343.49 523.616 344.476C523.616 345.461 523.421 346.436 523.041 347.345C522.662 348.254 522.106 349.079 521.406 349.772C520.706 350.465 519.875 351.012 518.962 351.382C518.049 351.752 517.072 351.937 516.087 351.926ZM167.556 338.645C166.021 338.664 164.556 339.286 163.477 340.377C162.399 341.469 161.794 342.941 161.794 344.476C161.794 346.01 162.399 347.482 163.477 348.574C164.556 349.665 166.021 350.287 167.556 350.306H516.087C516.858 350.315 517.624 350.171 518.339 349.882C519.054 349.593 519.705 349.165 520.254 348.622C520.803 348.08 521.238 347.434 521.536 346.723C521.833 346.011 521.986 345.247 521.986 344.476C521.986 343.704 521.833 342.94 521.536 342.228C521.238 341.517 520.803 340.871 520.254 340.329C519.705 339.786 519.054 339.358 518.339 339.069C517.624 338.78 516.858 338.636 516.087 338.645H167.556Z" fill="#292A2E"/>
<path d="M529.443 574.971C529.337 574.971 529.231 574.95 529.133 574.909C529.035 574.868 528.945 574.809 528.87 574.733C527.728 573.592 525.867 552.642 520.853 490.265C518.802 464.742 516.864 440.634 515.45 425.983C515.349 424.937 514.943 424.816 514.81 424.776C512.874 424.192 506.988 428.833 503.701 432.898C503.566 433.065 503.37 433.172 503.156 433.195C502.943 433.217 502.728 433.154 502.561 433.019C502.394 432.884 502.287 432.688 502.265 432.474C502.242 432.26 502.305 432.046 502.44 431.879C504.614 429.191 511.697 422.146 515.276 423.223C515.998 423.44 516.897 424.067 517.063 425.828C518.479 440.491 520.417 464.606 522.469 490.135C525.516 528.04 528.967 570.983 530.101 573.688C530.188 573.809 530.24 573.951 530.251 574.1C530.262 574.249 530.232 574.397 530.164 574.53C530.096 574.663 529.993 574.774 529.866 574.852C529.738 574.929 529.592 574.97 529.443 574.971Z" fill="#494949"/>
<path d="M513.368 452.868C526.816 442.088 531.274 425.308 523.323 415.39C515.373 405.472 498.026 406.171 484.578 416.951C471.129 427.732 466.672 444.511 474.622 454.429C482.572 464.347 499.919 463.648 513.368 452.868Z" fill="#EFC65C"/>
<path opacity="0.2" d="M513.368 452.868C526.816 442.088 531.274 425.308 523.323 415.39C515.373 405.472 498.026 406.171 484.578 416.951C471.129 427.732 466.672 444.511 474.622 454.429C482.572 464.347 499.919 463.648 513.368 452.868Z" fill="white"/>
<path d="M478.393 456.951C478.316 456.951 478.24 456.929 478.175 456.888C478.11 456.847 478.059 456.788 478.026 456.718C477.993 456.649 477.981 456.571 477.991 456.495C478 456.418 478.031 456.346 478.081 456.287L516.408 410.068C516.477 409.985 516.575 409.933 516.682 409.923C516.789 409.913 516.896 409.946 516.979 410.015C517.062 410.083 517.114 410.182 517.124 410.289C517.134 410.396 517.101 410.503 517.032 410.586L478.705 456.805C478.666 456.851 478.619 456.888 478.565 456.913C478.511 456.938 478.452 456.951 478.393 456.951Z" fill="white"/>
<path d="M537.802 565.063C537.673 565.063 537.545 565.032 537.431 564.972C537.316 564.913 537.217 564.827 537.142 564.722C537.067 564.616 537.018 564.494 537 564.366C536.982 564.238 536.995 564.108 537.037 563.986L551.435 522.583C551.859 521.366 552.581 520.276 553.536 519.411C554.49 518.546 555.647 517.934 556.899 517.632C558.151 517.33 559.459 517.346 560.703 517.681C561.947 518.015 563.088 518.656 564.02 519.545L571.632 526.816C571.787 526.964 571.877 527.168 571.882 527.383C571.887 527.598 571.806 527.807 571.658 527.962C571.509 528.118 571.305 528.208 571.09 528.213C570.875 528.218 570.667 528.137 570.511 527.988L562.9 520.717C562.165 520.015 561.264 519.509 560.282 519.245C559.3 518.981 558.267 518.968 557.279 519.207C556.29 519.445 555.377 519.928 554.624 520.611C553.87 521.294 553.3 522.155 552.965 523.115L538.569 564.519C538.514 564.678 538.41 564.816 538.273 564.913C538.135 565.011 537.971 565.063 537.802 565.063Z" fill="#494949"/>
<path d="M592.895 549.739C602.862 541.85 602.269 524.499 591.572 510.984C580.875 497.47 564.123 492.909 554.157 500.798C544.19 508.687 544.782 526.038 555.48 539.553C566.177 553.067 582.928 557.628 592.895 549.739Z" fill="#EFC65C"/>
<path d="M522.907 572.33C522.725 572.33 522.548 572.269 522.405 572.156C522.262 572.043 522.162 571.885 522.119 571.708L497.954 470.689C497.789 470.001 497.437 469.371 496.938 468.87C496.438 468.368 495.809 468.014 495.122 467.847C494.434 467.679 493.713 467.705 493.039 467.92C492.364 468.136 491.762 468.533 491.299 469.068L483.851 477.675C483.782 477.757 483.697 477.824 483.601 477.873C483.506 477.921 483.402 477.951 483.295 477.959C483.188 477.967 483.081 477.954 482.979 477.92C482.878 477.887 482.784 477.834 482.703 477.763C482.622 477.693 482.555 477.608 482.508 477.512C482.46 477.416 482.432 477.312 482.424 477.205C482.417 477.098 482.431 476.991 482.466 476.889C482.5 476.788 482.555 476.695 482.626 476.614L490.073 468.008C490.731 467.247 491.587 466.682 492.546 466.376C493.505 466.07 494.529 466.034 495.507 466.273C496.485 466.512 497.378 467.015 498.088 467.729C498.798 468.442 499.298 469.337 499.532 470.316L523.691 571.335C523.74 571.543 523.704 571.763 523.592 571.945C523.48 572.127 523.3 572.257 523.092 572.307C523.031 572.322 522.969 572.33 522.907 572.33Z" fill="#494949"/>
<path d="M513.992 500.117C516.929 483.133 509.156 467.609 496.631 465.443C484.106 463.277 471.571 475.289 468.634 492.273C465.697 509.257 473.47 524.781 485.995 526.947C498.52 529.113 511.055 517.101 513.992 500.117Z" fill="#EFC65C"/>
<path d="M529.444 574.971C529.411 574.971 529.377 574.969 529.344 574.965C529.239 574.952 529.137 574.918 529.044 574.866C528.951 574.814 528.87 574.743 528.804 574.659C528.739 574.576 528.69 574.479 528.662 574.377C528.633 574.274 528.625 574.167 528.638 574.061L544.066 448.799C544.234 447.435 544.793 446.148 545.675 445.093C546.557 444.039 547.725 443.261 549.038 442.854C550.351 442.448 551.754 442.429 553.078 442.8C554.402 443.171 555.59 443.917 556.5 444.947L574.134 464.92C574.277 465.081 574.349 465.292 574.336 465.506C574.322 465.721 574.224 465.922 574.063 466.064C573.902 466.206 573.691 466.279 573.476 466.265C573.261 466.252 573.061 466.154 572.919 465.993L555.285 446.02C554.581 445.224 553.663 444.647 552.64 444.36C551.617 444.073 550.533 444.088 549.518 444.402C548.503 444.717 547.6 445.318 546.918 446.133C546.237 446.948 545.805 447.943 545.675 448.997L530.248 574.259C530.224 574.455 530.129 574.636 529.981 574.767C529.833 574.898 529.642 574.971 529.444 574.971Z" fill="#494949"/>
<path d="M592.22 476.019C598.373 464.896 591.134 449.116 576.052 440.773C560.97 432.431 543.755 434.684 537.603 445.807C531.45 456.93 538.689 472.71 553.771 481.052C568.854 489.395 586.068 487.141 592.22 476.019Z" fill="#EFC65C"/>
<path opacity="0.2" d="M592.895 549.739C602.862 541.85 602.269 524.499 591.572 510.984C580.875 497.47 564.123 492.909 554.157 500.798C544.19 508.687 544.782 526.038 555.48 539.553C566.177 553.067 582.928 557.628 592.895 549.739Z" fill="white"/>
<path opacity="0.5" d="M513.992 500.117C516.929 483.133 509.156 467.609 496.631 465.443C484.106 463.277 471.571 475.289 468.634 492.273C465.697 509.257 473.47 524.781 485.995 526.947C498.52 529.113 511.055 517.101 513.992 500.117Z" fill="white"/>
<path opacity="0.5" d="M592.22 476.019C598.373 464.896 591.134 449.116 576.052 440.773C560.97 432.431 543.755 434.684 537.603 445.807C531.45 456.93 538.689 472.71 553.771 481.052C568.854 489.395 586.068 487.141 592.22 476.019Z" fill="white"/>
<path d="M549.176 681.256H509.71L503.17 554.983H555.716L549.176 681.256Z" fill="#292A2E"/>
<path opacity="0.3" d="M549.176 681.256H509.71L503.17 554.983H555.716L549.176 681.256Z" fill="white"/>
<path d="M592.896 550.138C592.835 550.138 592.775 550.124 592.72 550.098C592.665 550.071 592.616 550.032 592.579 549.984L553.839 501.044C553.772 500.96 553.741 500.852 553.754 500.746C553.766 500.639 553.821 500.541 553.905 500.475C553.989 500.408 554.096 500.377 554.203 500.39C554.31 500.402 554.407 500.456 554.474 500.541L593.214 549.481C593.261 549.541 593.291 549.612 593.299 549.688C593.308 549.764 593.295 549.841 593.262 549.909C593.228 549.978 593.176 550.036 593.112 550.076C593.047 550.117 592.972 550.138 592.896 550.138Z" fill="white"/>
<path d="M589.644 479.94C589.558 479.939 589.474 479.91 589.405 479.859L539.832 443.662C539.746 443.599 539.687 443.503 539.671 443.397C539.654 443.291 539.681 443.182 539.744 443.095C539.807 443.009 539.903 442.95 540.009 442.934C540.115 442.917 540.224 442.944 540.311 443.007L589.883 479.204C589.951 479.256 590.001 479.327 590.027 479.408C590.052 479.489 590.051 479.576 590.024 479.657C589.997 479.738 589.946 479.808 589.877 479.857C589.808 479.907 589.725 479.934 589.64 479.934L589.644 479.94Z" fill="white"/>
<path d="M483.981 526.419C483.945 526.418 483.91 526.414 483.876 526.404C483.772 526.376 483.684 526.308 483.63 526.216C483.577 526.123 483.562 526.012 483.589 525.909L499.37 466.783C499.4 466.682 499.468 466.597 499.56 466.545C499.652 466.494 499.76 466.48 499.862 466.507C499.964 466.534 500.052 466.6 500.106 466.691C500.16 466.781 500.177 466.889 500.153 466.992L484.372 526.117C484.349 526.203 484.298 526.28 484.228 526.334C484.157 526.389 484.07 526.418 483.981 526.419Z" fill="white"/>
<path d="M568.229 682.393H0.56732C0.416857 682.393 0.272557 682.334 0.166164 682.227C0.059771 682.121 0 681.977 0 681.826C0 681.676 0.059771 681.531 0.166164 681.425C0.272557 681.319 0.416857 681.259 0.56732 681.259H568.228C568.378 681.259 568.522 681.319 568.629 681.425C568.735 681.531 568.795 681.676 568.795 681.826C568.795 681.977 568.735 682.121 568.629 682.227C568.522 682.334 568.378 682.393 568.228 682.393H568.229Z" fill="#292A2E"/>
<g opacity="0.65">
<path d="M568.229 682.393H0.56732C0.416857 682.393 0.272557 682.334 0.166164 682.227C0.059771 682.121 0 681.977 0 681.826C0 681.676 0.059771 681.531 0.166164 681.425C0.272557 681.319 0.416857 681.259 0.56732 681.259H568.228C568.378 681.259 568.522 681.319 568.629 681.425C568.735 681.531 568.795 681.676 568.795 681.826C568.795 681.977 568.735 682.121 568.629 682.227C568.522 682.334 568.378 682.393 568.228 682.393H568.229Z" fill="#292A2E"/>
</g>
</svg>
