<svg width="817" height="771" viewBox="0 0 817 771" fill="none" xmlns="http://www.w3.org/2000/svg">
<path d="M248.926 536.959H669.576C678.556 536.959 685.836 529.679 685.836 520.699L685.836 25.4283C685.836 16.4481 678.556 9.16827 669.576 9.16827H248.926C239.946 9.16827 232.666 16.4481 232.666 25.4283L232.666 520.699C232.666 529.679 239.946 536.959 248.926 536.959Z" fill="white"/>
<path d="M231.666 520.701V25.4282C231.671 20.8523 233.491 16.4653 236.727 13.2297C239.963 9.99415 244.35 8.17422 248.926 8.16919H669.576C674.152 8.17422 678.539 9.99415 681.774 13.2297C685.01 16.4653 686.83 20.8523 686.836 25.4282V520.701C686.83 525.277 685.01 529.664 681.775 532.9C678.539 536.136 674.152 537.956 669.576 537.961H248.926C244.35 537.956 239.963 536.136 236.727 532.9C233.491 529.664 231.671 525.277 231.666 520.701ZM248.926 10.1702C244.88 10.1747 241.001 11.7837 238.141 14.6444C235.28 17.505 233.67 21.3835 233.666 25.4292V520.701C233.67 524.747 235.28 528.626 238.141 531.486C241.001 534.347 244.88 535.956 248.926 535.961H669.576C673.621 535.956 677.5 534.347 680.361 531.486C683.222 528.626 684.831 524.747 684.836 520.701V25.4282C684.831 21.3825 683.222 17.504 680.361 14.6434C677.5 11.7827 673.621 10.1737 669.576 10.1692L248.926 10.1702Z" fill="#292A2E"/>
<path d="M335 769.743C334.856 769.743 334.714 769.712 334.584 769.653C334.454 769.593 334.337 769.506 334.243 769.398C334.15 769.29 334.08 769.162 334.04 769.025C333.999 768.887 333.989 768.742 334.01 768.6L367.452 537.816C367.468 537.684 367.511 537.557 367.578 537.442C367.644 537.328 367.733 537.227 367.838 537.147C367.944 537.066 368.065 537.008 368.193 536.974C368.322 536.941 368.456 536.934 368.587 536.953C368.719 536.972 368.845 537.017 368.959 537.085C369.072 537.154 369.172 537.244 369.25 537.351C369.329 537.458 369.385 537.58 369.416 537.709C369.447 537.838 369.452 537.972 369.431 538.103L335.984 768.887C335.949 769.124 335.831 769.341 335.65 769.498C335.47 769.655 335.239 769.742 335 769.743Z" fill="#292A2E"/>
<path d="M583.505 769.743C583.265 769.743 583.033 769.656 582.851 769.499C582.67 769.342 582.551 769.125 582.517 768.887L549.074 538.101C549.041 537.841 549.111 537.578 549.27 537.37C549.428 537.161 549.663 537.023 549.922 536.985C550.182 536.948 550.446 537.013 550.657 537.168C550.869 537.324 551.011 537.555 551.053 537.814L584.5 768.601C584.52 768.743 584.51 768.888 584.47 769.026C584.429 769.163 584.36 769.291 584.266 769.399C584.172 769.507 584.056 769.594 583.925 769.654C583.795 769.713 583.653 769.744 583.51 769.744L583.505 769.743Z" fill="#292A2E"/>
<g opacity="0.1">
<path d="M278.419 263.564L640.084 263.564C646.442 263.564 651.596 258.41 651.596 252.052V58.821C651.596 52.4631 646.442 47.309 640.084 47.309L278.419 47.309C272.061 47.309 266.907 52.4631 266.907 58.821V252.052C266.907 258.41 272.061 263.564 278.419 263.564Z" fill="#EFC65C"/>
</g>
<g opacity="0.1">
<path d="M266.5 487.011V300.871C266.503 297.677 267.774 294.615 270.033 292.356C272.291 290.098 275.354 288.828 278.548 288.824H638.954C642.147 288.828 645.209 290.099 647.467 292.357C649.726 294.616 650.996 297.677 651 300.871V487.011C650.996 490.206 649.726 493.268 647.467 495.527C645.208 497.785 642.146 499.056 638.952 499.059H278.548C275.353 499.056 272.291 497.785 270.032 495.527C267.774 493.268 266.503 490.206 266.5 487.011Z" fill="#EFC65C"/>
</g>
<path d="M604.919 471.585H612.072C613.148 471.585 614.021 470.713 614.021 469.636V332.995C614.021 331.919 613.148 331.046 612.072 331.046H604.919C603.842 331.046 602.97 331.919 602.97 332.995V469.636C602.97 470.713 603.842 471.585 604.919 471.585Z" fill="white"/>
<path opacity="0.3" d="M615.971 471.585H623.124C624.2 471.585 625.073 470.713 625.073 469.636V377.135C625.073 376.059 624.2 375.186 623.124 375.186H615.971C614.894 375.186 614.022 376.059 614.022 377.135V469.636C614.022 470.713 614.894 471.585 615.971 471.585Z" fill="#EFC65C"/>
<path d="M516.479 471.585H523.632C524.708 471.585 525.581 470.713 525.581 469.636V455.751C525.581 454.675 524.708 453.802 523.632 453.802H516.479C515.402 453.802 514.53 454.675 514.53 455.751V469.636C514.53 470.713 515.402 471.585 516.479 471.585Z" fill="white"/>
<path opacity="0.3" d="M527.53 471.585H534.683C535.759 471.585 536.632 470.713 536.632 469.636V369.199C536.632 368.123 535.759 367.25 534.683 367.25H527.53C526.453 367.25 525.581 368.123 525.581 369.199V469.636C525.581 470.713 526.453 471.585 527.53 471.585Z" fill="#EFC65C"/>
<path d="M560.699 471.585H567.852C568.928 471.585 569.801 470.713 569.801 469.636V389.412C569.801 388.336 568.928 387.463 567.852 387.463H560.699C559.622 387.463 558.75 388.336 558.75 389.412V469.636C558.75 470.713 559.622 471.585 560.699 471.585Z" fill="white"/>
<path opacity="0.3" d="M571.751 471.585H578.904C579.98 471.585 580.853 470.713 580.853 469.636V418.478C580.853 417.402 579.98 416.529 578.904 416.529H571.751C570.674 416.529 569.802 417.402 569.802 418.478V469.636C569.802 470.713 570.674 471.585 571.751 471.585Z" fill="#EFC65C"/>
<path d="M383.818 471.585H390.971C392.047 471.585 392.92 470.712 392.92 469.636V360.175C392.92 359.099 392.047 358.226 390.971 358.226H383.818C382.741 358.226 381.869 359.099 381.869 360.175V469.636C381.869 470.712 382.741 471.585 383.818 471.585Z" fill="white"/>
<path opacity="0.3" d="M394.87 471.586H402.023C403.099 471.586 403.972 470.714 403.972 469.637V401.911C403.972 400.835 403.099 399.962 402.023 399.962H394.87C393.793 399.962 392.921 400.835 392.921 401.911V469.637C392.921 470.714 393.793 471.586 394.87 471.586Z" fill="#EFC65C"/>
<path d="M472.259 471.585H479.412C480.488 471.585 481.361 470.713 481.361 469.636V377.858C481.361 376.782 480.488 375.909 479.412 375.909H472.259C471.182 375.909 470.31 376.782 470.31 377.858V469.636C470.31 470.713 471.182 471.585 472.259 471.585Z" fill="white"/>
<path opacity="0.3" d="M483.31 471.585H490.463C491.539 471.585 492.412 470.713 492.412 469.636V388.69C492.412 387.614 491.539 386.741 490.463 386.741H483.31C482.233 386.741 481.361 387.614 481.361 388.69V469.636C481.361 470.713 482.233 471.585 483.31 471.585Z" fill="#EFC65C"/>
<path d="M428.039 471.585H435.192C436.268 471.585 437.141 470.713 437.141 469.636V332.995C437.141 331.919 436.268 331.046 435.192 331.046H428.039C426.962 331.046 426.09 331.919 426.09 332.995V469.636C426.09 470.713 426.962 471.585 428.039 471.585Z" fill="white"/>
<path opacity="0.3" d="M439.09 471.585H446.243C447.319 471.585 448.192 470.713 448.192 469.636V339.765C448.192 338.689 447.319 337.816 446.243 337.816H439.09C438.013 337.816 437.141 338.689 437.141 339.765V469.636C437.141 470.713 438.013 471.585 439.09 471.585Z" fill="#EFC65C"/>
<path d="M339.599 471.585H346.752C347.828 471.585 348.701 470.713 348.701 469.636V332.995C348.701 331.919 347.828 331.046 346.752 331.046H339.599C338.522 331.046 337.65 331.919 337.65 332.995V469.636C337.65 470.713 338.522 471.585 339.599 471.585Z" fill="white"/>
<path opacity="0.3" d="M350.65 471.585H357.803C358.879 471.585 359.752 470.713 359.752 469.636V377.135C359.752 376.059 358.879 375.186 357.803 375.186H350.65C349.573 375.186 348.701 376.059 348.701 377.135V469.636C348.701 470.713 349.573 471.585 350.65 471.585Z" fill="#EFC65C"/>
<path d="M295.379 471.585H302.532C303.608 471.585 304.481 470.713 304.481 469.636V389.412C304.481 388.336 303.608 387.463 302.532 387.463H295.379C294.302 387.463 293.43 388.336 293.43 389.412V469.636C293.43 470.713 294.302 471.585 295.379 471.585Z" fill="white"/>
<path opacity="0.3" d="M306.43 471.585H313.583C314.659 471.585 315.532 470.713 315.532 469.636V418.478C315.532 417.402 314.659 416.529 313.583 416.529H306.43C305.353 416.529 304.481 417.402 304.481 418.478V469.636C304.481 470.713 305.353 471.585 306.43 471.585Z" fill="#EFC65C"/>
<path opacity="0.2" d="M625.172 116.71V236.338C625.172 236.847 624.97 237.335 624.61 237.695C624.25 238.055 623.763 238.257 623.254 238.257H295.248C294.739 238.257 294.251 238.055 293.891 237.695C293.532 237.335 293.33 236.847 293.33 236.338V172.83C293.33 172.493 293.418 172.162 293.586 171.871C293.755 171.579 293.997 171.337 294.289 171.168L352.363 137.638C352.659 137.467 352.995 137.379 353.337 137.381C353.679 137.384 354.013 137.478 354.307 137.653L380.45 153.277C380.777 153.473 381.154 153.567 381.535 153.547C381.915 153.527 382.281 153.394 382.586 153.165L410.037 132.559C410.316 132.349 410.649 132.219 410.997 132.184C411.345 132.148 411.696 132.209 412.013 132.359L445.889 148.471C446.251 148.644 446.657 148.698 447.052 148.628C447.447 148.557 447.809 148.364 448.089 148.077L485.7 109.46C486.024 109.126 486.46 108.921 486.924 108.885C487.389 108.848 487.851 108.981 488.224 109.26L512.646 127.547C512.999 127.812 513.434 127.947 513.876 127.929C514.317 127.911 514.739 127.741 515.07 127.447L531.049 113.247C531.371 112.96 531.78 112.791 532.211 112.766C532.642 112.74 533.068 112.861 533.422 113.108L556.1 128.938C556.426 129.165 556.814 129.286 557.212 129.283C557.609 129.28 557.996 129.154 558.319 128.922L597.531 100.701C597.832 100.484 598.191 100.359 598.562 100.341C598.933 100.323 599.302 100.414 599.623 100.601L624.223 115.05C624.512 115.22 624.752 115.462 624.919 115.753C625.086 116.045 625.173 116.375 625.172 116.71Z" fill="#EFC65C"/>
<path opacity="0.61" d="M294.433 171.181C294.601 171.182 294.766 171.137 294.912 171.052L353.165 137.418L380.9 153.993C381.063 154.091 381.252 154.137 381.442 154.127C381.632 154.118 381.815 154.051 381.968 153.937L410.912 132.209L446.553 149.16C446.734 149.246 446.938 149.272 447.135 149.237C447.332 149.201 447.513 149.104 447.653 148.96L486.807 108.754L513.156 128.484C513.333 128.617 513.55 128.684 513.771 128.675C513.992 128.666 514.202 128.581 514.368 128.434L532.084 112.686L556.5 129.734C556.663 129.848 556.857 129.908 557.056 129.907C557.254 129.905 557.447 129.842 557.609 129.726L598.434 100.35L623.584 115.12C623.692 115.184 623.812 115.226 623.937 115.243C624.062 115.261 624.189 115.254 624.311 115.222C624.433 115.19 624.548 115.135 624.648 115.059C624.749 114.983 624.833 114.888 624.897 114.78C624.961 114.671 625.003 114.551 625.021 114.426C625.038 114.301 625.031 114.174 624.999 114.052C624.967 113.93 624.912 113.816 624.836 113.715C624.76 113.615 624.665 113.53 624.557 113.466L598.867 98.3782C598.706 98.2841 598.522 98.2387 598.336 98.2474C598.15 98.2561 597.971 98.3186 597.82 98.4272L557.04 127.771L532.561 110.684C532.384 110.56 532.171 110.5 531.956 110.512C531.741 110.525 531.536 110.61 531.375 110.753L513.675 126.483L487.275 106.717C487.088 106.578 486.857 106.511 486.625 106.529C486.393 106.547 486.175 106.65 486.013 106.817L446.751 147.135L411.206 130.229C411.048 130.154 410.872 130.124 410.698 130.141C410.524 130.159 410.358 130.224 410.218 130.329L381.324 152.019L353.66 135.485C353.513 135.398 353.346 135.351 353.175 135.35C353.004 135.349 352.836 135.393 352.688 135.478L293.946 169.393C293.763 169.499 293.62 169.662 293.539 169.857C293.459 170.053 293.444 170.269 293.499 170.473C293.554 170.677 293.675 170.858 293.842 170.986C294.01 171.115 294.215 171.184 294.427 171.184L294.433 171.181Z" fill="#EFC65C"/>
<path d="M81.1607 725.274C81.1607 725.274 85.6757 748.674 107.589 749.982C129.502 751.29 124.75 768.743 124.75 768.743H41.0107V726.906L81.1607 725.274Z" fill="#EFC65C"/>
<path d="M35.3317 298.344C35.3317 298.344 41.5937 291.308 41.5387 307.267C41.3317 366.796 37.3147 740.21 37.3147 740.21L92.3407 739.748L125.674 295.925L35.3317 298.344Z" fill="#262626"/>
<path d="M175.122 725.274C175.122 725.274 179.637 748.674 201.55 749.982C223.463 751.29 218.711 768.743 218.711 768.743H134.972V726.906L175.122 725.274Z" fill="#EFC65C"/>
<path d="M185.765 302.966C185.765 302.966 192.639 506.422 191.925 516.366L185.461 738.666L131.345 739.666L122.618 508.323C122.618 508.323 116.898 444.507 101.479 385.249C93.5901 354.836 88.8426 323.694 87.3107 292.312L185.765 302.966Z" fill="#262626"/>
<path d="M114.373 447.216L118.885 378.207C118.885 378.207 123.52 406.896 123.52 431.624C123.52 443.711 121.031 491.566 121.031 491.566L114.373 447.216Z" fill="#0A0A0A"/>
<path d="M34.7337 298.337L34.5537 298.347C34.5537 298.347 34.6837 294.877 34.7337 298.337Z" fill="#333333"/>
<path d="M34.9597 298.337L34.7797 298.347C34.7797 298.347 34.9097 294.877 34.9597 298.337Z" fill="#333333"/>
<path d="M336.486 133.201C336.154 132.545 335.627 132.007 334.977 131.663C334.328 131.32 333.587 131.186 332.858 131.281C332.864 131.237 332.86 131.192 332.845 131.151C332.83 131.109 332.806 131.071 332.773 131.041C332.74 131.011 332.701 130.989 332.658 130.978C332.615 130.966 332.57 130.965 332.527 130.975L334.987 129.212C335.723 128.708 336.253 127.955 336.477 127.09C336.701 126.226 336.604 125.311 336.205 124.512C335.786 123.736 335.093 123.144 334.261 122.85C333.43 122.556 332.519 122.581 331.705 122.921C331.711 122.887 331.687 122.853 331.682 122.821L332.693 122.096C333.384 121.618 333.89 120.917 334.123 120.109C334.357 119.302 334.304 118.438 333.975 117.665C333.758 117.185 333.437 116.758 333.036 116.416C332.634 116.075 332.162 115.827 331.653 115.69C331.144 115.553 330.61 115.53 330.092 115.624C329.573 115.718 329.081 115.926 328.653 116.233L326.32 117.906C326.313 117.892 326.32 117.876 326.311 117.863C326.302 117.85 326.276 117.845 326.263 117.831C326.799 117.229 327.114 116.462 327.156 115.657C327.199 114.851 326.966 114.056 326.497 113.4C325.397 111.628 322.854 111.99 321.345 113.071L307.613 122.557L310.067 118.424C310.561 117.629 310.736 116.676 310.554 115.757C310.373 114.839 309.849 114.023 309.09 113.476C308.688 113.207 308.235 113.023 307.76 112.934C307.285 112.846 306.796 112.856 306.325 112.962C305.853 113.069 305.408 113.271 305.017 113.555C304.626 113.839 304.297 114.2 304.05 114.616L290.65 137.179C289.077 139.826 288.599 142.982 289.317 145.975C290.034 148.969 291.891 151.565 294.492 153.212C297.508 155.122 301.027 156.088 304.596 155.986C308.165 155.883 311.622 154.717 314.524 152.637L335.262 137.773C335.951 137.261 336.447 136.53 336.669 135.7C336.891 134.87 336.827 133.99 336.486 133.201Z" fill="#E98862"/>
<g opacity="0.25">
<path d="M312.732 127.278C312.782 127.347 312.858 127.394 312.942 127.408C313.027 127.422 313.113 127.403 313.184 127.354L326.232 118.317C326.267 118.293 326.297 118.261 326.321 118.225C326.344 118.189 326.36 118.148 326.368 118.106C326.376 118.063 326.375 118.02 326.366 117.978C326.357 117.936 326.339 117.896 326.315 117.86C326.29 117.825 326.259 117.794 326.223 117.771C326.186 117.748 326.146 117.732 326.103 117.724C326.061 117.716 326.017 117.717 325.975 117.726C325.933 117.735 325.893 117.753 325.858 117.777L312.81 126.814C312.738 126.864 312.689 126.94 312.674 127.026C312.658 127.111 312.677 127.2 312.727 127.271L312.732 127.278Z" fill="#0C0C0C"/>
</g>
<g opacity="0.25">
<path d="M316.559 133.142C316.609 133.212 316.684 133.259 316.769 133.273C316.854 133.288 316.94 133.268 317.011 133.219L331.573 123.133C331.644 123.083 331.693 123.007 331.708 122.922C331.723 122.836 331.704 122.748 331.655 122.676C331.603 122.607 331.527 122.56 331.443 122.545C331.358 122.529 331.27 122.547 331.198 122.593L316.637 132.679C316.565 132.729 316.516 132.805 316.501 132.891C316.485 132.976 316.504 133.065 316.554 133.136L316.559 133.142Z" fill="#0C0C0C"/>
</g>
<g opacity="0.25">
<path d="M320.667 139.518C320.717 139.587 320.793 139.634 320.878 139.648C320.962 139.662 321.049 139.643 321.12 139.594L332.735 131.549C332.806 131.5 332.855 131.424 332.871 131.338C332.886 131.252 332.867 131.164 332.818 131.092C332.768 131.021 332.692 130.972 332.606 130.956C332.521 130.94 332.432 130.96 332.361 131.009L320.745 139.054C320.673 139.104 320.624 139.18 320.609 139.265C320.593 139.351 320.612 139.439 320.662 139.511L320.667 139.518Z" fill="#0C0C0C"/>
</g>
<path d="M282.743 132.037L243.384 199.069L195.359 136.077L155.476 172.034L223.587 260.245L224.033 260.873C226.759 264.607 230.391 267.585 234.587 269.527C238.783 271.469 243.404 272.311 248.014 271.974C252.625 271.636 257.075 270.131 260.943 267.599C264.811 265.066 267.971 261.591 270.125 257.5L326.093 156.145L282.743 132.037Z" fill="#EFC65C"/>
<path d="M239.526 207.13C239.446 207.13 239.368 207.111 239.298 207.075C239.239 207.045 239.187 207.004 239.144 206.954C239.102 206.904 239.069 206.846 239.049 206.784C239.029 206.721 239.021 206.656 239.026 206.59C239.032 206.525 239.05 206.461 239.08 206.402L242.939 198.842C242.969 198.784 243.01 198.732 243.06 198.689C243.11 198.647 243.168 198.614 243.23 198.594C243.293 198.574 243.358 198.566 243.424 198.571C243.489 198.576 243.553 198.594 243.612 198.624C243.67 198.654 243.722 198.695 243.765 198.745C243.807 198.795 243.84 198.853 243.86 198.916C243.88 198.978 243.888 199.044 243.883 199.11C243.878 199.175 243.86 199.239 243.83 199.297L239.971 206.857C239.929 206.939 239.865 207.008 239.787 207.056C239.708 207.105 239.618 207.13 239.526 207.13Z" fill="#0C0C0C"/>
<path d="M192.588 198.688L191.387 219.86L192.385 219.916L193.586 198.744L192.588 198.688Z" fill="#0C0C0C"/>
<path d="M65.7657 45.4631C65.7657 45.4631 63.9217 69.0291 58.5167 77.5241C42.9567 101.981 38.2097 129.641 53.3397 144.296C68.4697 158.951 166.04 160.281 173.812 127.067C180.359 99.1041 167.04 95.9351 164.058 72.7671C162.709 62.2861 158.919 40.2961 158.919 40.2961" fill="#0A0A0A"/>
<path d="M148.974 121.757C148.806 121.735 146.937 152.749 110.908 150.045C85.9657 148.176 77.0727 121.713 76.5007 121.713C79.1897 121.142 83.7187 120.313 84.9127 119.673C88.8397 117.563 93.6997 115.367 94.9657 107.74C95.6957 103.34 94.4577 80.8542 94.8387 76.4072L133.125 84.9522C132.59 94.3462 128.846 116.123 141.969 119.977C144.153 120.614 146.505 121.201 148.974 121.757Z" fill="#E98862"/>
<path opacity="0.52" d="M133.662 111.077C133.062 109.144 132.676 107.152 132.51 105.135C132.089 100.533 132.172 95.8983 132.76 91.3142C124.978 90.2641 117.647 87.0521 111.6 82.0432C110.889 84.6692 106.979 96.1432 108.062 98.6372C110.108 103.353 119.724 111.077 133.662 111.077Z" fill="#0C0C0C"/>
<path d="M128.587 101.316C113.477 102.602 94.0167 96.3382 90.2047 76.1912L86.7637 58.0122C82.9507 37.8652 90.4417 19.5302 109.412 15.9402C128.381 12.3502 145.651 25.9992 149.464 46.1462L150.987 54.1942C152.45 61.9252 155.548 99.0222 128.587 101.316Z" fill="#E98862"/>
<path d="M145.58 55.0722C146.893 55.0722 147.958 54.0075 147.958 52.6942C147.958 51.3808 146.893 50.3162 145.58 50.3162C144.266 50.3162 143.202 51.3808 143.202 52.6942C143.202 54.0075 144.266 55.0722 145.58 55.0722Z" fill="#0C0C0C"/>
<path d="M121.219 58.3263C122.532 58.3263 123.597 57.2616 123.597 55.9483C123.597 54.635 122.532 53.5703 121.219 53.5703C119.905 53.5703 118.841 54.635 118.841 55.9483C118.841 57.2616 119.905 58.3263 121.219 58.3263Z" fill="#0C0C0C"/>
<path d="M134.588 73.3812H134.625C135.393 73.23 136.153 73.0363 136.9 72.8012C138.015 72.4422 139.477 71.8492 139.286 70.8412C139.069 69.6932 133.581 57.9032 132.955 56.5622C132.9 56.4451 132.801 56.3545 132.68 56.3103C132.558 56.2662 132.424 56.2721 132.307 56.3267C132.19 56.3813 132.1 56.4802 132.055 56.6017C132.011 56.7231 132.017 56.8571 132.072 56.9742C134.413 61.9952 138.183 70.2502 138.328 71.0232C138.203 71.3812 136.351 72.0622 134.444 72.4232C134.318 72.4451 134.207 72.515 134.132 72.6181C134.058 72.7212 134.027 72.8493 134.046 72.975C134.065 73.1007 134.132 73.214 134.233 73.2909C134.334 73.3677 134.462 73.4019 134.588 73.3862V73.3812Z" fill="#0C0C0C"/>
<path d="M131.779 82.0802C134.873 81.6782 137.829 80.5551 140.41 78.8012C140.518 78.7308 140.594 78.6202 140.621 78.4938C140.648 78.3674 140.623 78.2356 140.553 78.1272C140.482 78.0189 140.372 77.9429 140.245 77.9161C140.119 77.8893 139.987 77.9138 139.879 77.9842C134.294 81.6232 128.745 82.2112 123.832 79.6842C123.732 79.6305 123.63 79.5821 123.526 79.5392C123.405 79.4965 123.271 79.5034 123.155 79.5584C123.039 79.6135 122.949 79.7122 122.906 79.833C122.862 79.9539 122.868 80.0871 122.922 80.2036C122.976 80.3202 123.074 80.4106 123.195 80.4552C123.234 80.4712 123.295 80.5052 123.387 80.5552C125.97 81.8875 128.892 82.4185 131.779 82.0802Z" fill="#0C0C0C"/>
<path d="M71.5887 64.3483L88.5887 61.2303C101.467 56.0193 105.362 33.7243 105.362 33.7243C105.362 33.7243 121.01 48.9713 158.919 40.3013C158.919 40.3013 151.319 -12.5657 95.3127 2.80125C77.2537 7.75825 64.2927 25.9563 65.9127 50.2773C67.0387 67.3243 71.5887 64.3483 71.5887 64.3483Z" fill="#0A0A0A"/>
<path d="M92.5437 82.1062C86.7797 83.1972 80.9387 77.9142 79.8437 72.1492C78.7487 66.3842 82.8247 62.3212 88.5897 61.2302L92.2897 64.5302L97.4997 81.1682L92.5437 82.1062Z" fill="#E98862"/>
<path d="M136.429 46.9223C138.11 45.837 140.053 45.2236 142.053 45.1463C143.037 45.1029 144.023 45.2071 144.977 45.4553C145.921 45.6981 146.831 46.0586 147.686 46.5283C147.806 46.5876 147.898 46.6921 147.942 46.819C147.986 46.946 147.978 47.085 147.919 47.206C147.861 47.3269 147.757 47.4199 147.631 47.4648C147.504 47.5096 147.365 47.5026 147.244 47.4453L147.208 47.4283C146.418 47.0404 145.583 46.7532 144.722 46.5733C143.87 46.3911 142.996 46.3388 142.129 46.4183C140.409 46.5622 138.758 47.1587 137.343 48.1473L137.297 48.1803C137.215 48.2394 137.123 48.2819 137.026 48.3054C136.928 48.3289 136.826 48.3329 136.727 48.3172C136.628 48.3015 136.533 48.2664 136.447 48.2139C136.361 48.1614 136.287 48.0926 136.228 48.0113C136.169 47.93 136.126 47.8379 136.103 47.7402C136.079 47.6425 136.075 47.5411 136.091 47.4418C136.107 47.3425 136.142 47.2473 136.194 47.1616C136.247 47.0759 136.315 47.0014 136.397 46.9423L136.429 46.9223Z" fill="#0C0C0C"/>
<path d="M121.263 50.4922C119.586 50.0826 117.831 50.123 116.176 50.6092C115.338 50.8489 114.542 51.2137 113.814 51.6912C113.075 52.1712 112.4 52.7424 111.805 53.3912L111.778 53.4182C111.684 53.5117 111.559 53.5653 111.426 53.5677C111.294 53.5701 111.167 53.521 111.07 53.431C110.974 53.3409 110.916 53.2168 110.909 53.0849C110.902 52.953 110.947 52.8237 111.034 52.7242C111.661 51.9772 112.379 51.3123 113.173 50.7452C113.971 50.168 114.853 49.7145 115.787 49.4002C117.68 48.7494 119.713 48.6196 121.674 49.0242C121.873 49.0669 122.046 49.1868 122.157 49.3577C122.267 49.5285 122.305 49.7363 122.263 49.9352C122.22 50.1341 122.1 50.3079 121.929 50.4183C121.758 50.5288 121.551 50.5669 121.352 50.5242L121.321 50.5172L121.263 50.4922Z" fill="#0C0C0C"/>
<path d="M132.437 86.6543C132.997 86.5902 133.551 86.4788 134.093 86.3213C134.155 86.3044 134.213 86.2752 134.264 86.2356C134.315 86.1959 134.358 86.1465 134.39 86.0903C134.421 86.034 134.442 85.972 134.449 85.9079C134.457 85.8437 134.451 85.7788 134.433 85.7167C134.416 85.6546 134.386 85.5967 134.345 85.5464C134.305 85.496 134.255 85.4542 134.198 85.4233C134.141 85.3925 134.079 85.3733 134.015 85.3667C133.95 85.3602 133.886 85.3665 133.824 85.3853C130.563 86.3233 128.709 85.0803 128.632 85.0263C128.526 84.952 128.394 84.9229 128.267 84.9454C128.139 84.9679 128.026 85.0402 127.952 85.1462C127.877 85.2523 127.848 85.3836 127.871 85.5111C127.893 85.6386 127.966 85.752 128.072 85.8262C129.388 86.5976 130.93 86.8901 132.437 86.6543Z" fill="#0C0C0C"/>
<path d="M88.6307 61.0151L88.4617 60.5441C110.007 52.8091 104.738 31.6661 104.683 31.4531L105.166 31.3271C105.223 31.5431 110.612 53.1231 88.6307 61.0151Z" fill="#0C0C0C"/>
<path opacity="0.1" d="M119.299 74.8655C121.786 74.5978 123.644 72.9016 123.447 71.0769C123.251 69.2522 121.075 67.99 118.588 68.2576C116.1 68.5252 114.243 70.2214 114.439 72.0461C114.636 73.8708 116.811 75.1331 119.299 74.8655Z" fill="#0C0C0C"/>
<path opacity="0.1" d="M145.629 67.8852C145.829 69.7072 148.005 70.9672 150.493 70.7032C150.923 70.6565 151.346 70.5657 151.758 70.4321C151.898 68.2641 151.929 66.1771 151.888 64.2441C151.2 64.0642 150.485 64.0141 149.779 64.0962C147.291 64.3602 145.435 66.0562 145.629 67.8852Z" fill="#0C0C0C"/>
<path d="M193.737 190.035C192.602 203.367 187.082 286.544 185.991 302.966H41.6188C40.7688 288.155 30.9548 223.39 27.7338 194.427C24.6588 166.789 18.6258 152.952 23.0478 144.781C30.2738 131.427 50.0198 123.711 63.4838 121.888C71.7058 120.775 84.0708 119.977 84.0708 119.977C84.0708 119.977 85.1177 141.157 110.084 142.336C144.069 143.936 141.8 119.977 141.968 119.977C147.474 119.977 178.926 123.462 186.621 128.023C207.589 140.44 196.146 161.782 193.737 190.035Z" fill="#EFC65C"/>
<path d="M287.449 199.348L273.533 266.988C273.25 268.362 272.505 269.596 271.422 270.487C270.339 271.378 268.983 271.87 267.581 271.882L171.755 272.698C170.841 272.706 169.936 272.509 169.108 272.122C168.28 271.735 167.549 271.168 166.968 270.462C166.388 269.756 165.972 268.929 165.753 268.041C165.533 267.154 165.515 266.229 165.699 265.333L179.615 197.693C179.898 196.32 180.643 195.085 181.726 194.194C182.809 193.304 184.165 192.811 185.567 192.799L281.393 191.983C282.307 191.975 283.211 192.172 284.039 192.559C284.868 192.946 285.599 193.513 286.179 194.22C286.76 194.926 287.175 195.753 287.395 196.64C287.615 197.527 287.633 198.453 287.449 199.348Z" fill="#292A2E"/>
<path d="M198.094 247.393C198.145 248.284 197.873 249.163 197.327 249.869C196.781 250.575 195.999 251.06 195.124 251.234L192.174 251.884C192.226 251.902 192.274 251.932 192.312 251.972C192.351 252.012 192.379 252.061 192.394 252.114C192.401 252.177 192.387 252.24 192.354 252.294C193.063 252.493 193.693 252.909 194.155 253.482C194.617 254.056 194.889 254.759 194.934 255.494C194.938 256.351 194.653 257.185 194.125 257.86C193.597 258.535 192.857 259.012 192.024 259.214L167.114 264.744C165.84 265.03 164.539 265.175 163.234 265.174C160.326 265.174 157.463 264.466 154.89 263.112C152.317 261.759 150.111 259.8 148.464 257.404C146.717 254.87 146.028 251.753 146.543 248.719C147.059 245.684 148.738 242.97 151.224 241.154L172.414 225.664C172.88 225.323 173.422 225.1 173.994 225.014L172.044 234.484L172.564 234.364L172.674 234.344L188.924 231.034C190.734 230.634 193.214 231.294 193.534 233.354C193.705 234.143 193.605 234.966 193.249 235.691C192.893 236.415 192.303 236.998 191.574 237.344C191.584 237.354 191.604 237.364 191.604 237.384C191.604 237.404 191.594 237.414 191.594 237.434L194.404 236.814C194.918 236.7 195.451 236.702 195.964 236.818C196.478 236.935 196.959 237.165 197.373 237.49C197.787 237.815 198.124 238.228 198.359 238.699C198.595 239.17 198.723 239.688 198.734 240.214C198.734 241.055 198.443 241.869 197.911 242.52C197.378 243.171 196.638 243.617 195.814 243.784L194.604 244.054C194.594 244.094 194.604 244.134 194.584 244.164C195.465 244.171 196.313 244.505 196.961 245.102C197.61 245.699 198.014 246.515 198.094 247.393Z" fill="#E98862"/>
<g opacity="0.25">
<path d="M175.417 240.716C175.436 240.8 175.487 240.872 175.559 240.919C175.631 240.965 175.719 240.981 175.803 240.964L191.351 237.776C191.395 237.769 191.437 237.753 191.474 237.73C191.512 237.706 191.544 237.675 191.569 237.638C191.595 237.602 191.612 237.561 191.621 237.517C191.63 237.474 191.63 237.429 191.621 237.385C191.612 237.342 191.594 237.301 191.569 237.264C191.544 237.228 191.511 237.197 191.474 237.173C191.436 237.149 191.394 237.133 191.35 237.126C191.307 237.119 191.262 237.121 191.219 237.132L175.671 240.321C175.585 240.339 175.51 240.389 175.462 240.462C175.414 240.535 175.397 240.624 175.415 240.709L175.417 240.716Z" fill="#0C0C0C"/>
</g>
<g opacity="0.25">
<path d="M176.634 247.612C176.653 247.696 176.704 247.768 176.776 247.815C176.848 247.861 176.936 247.877 177.02 247.86L194.372 244.302C194.457 244.284 194.532 244.233 194.58 244.161C194.628 244.088 194.645 243.999 194.628 243.914C194.607 243.83 194.556 243.757 194.484 243.71C194.412 243.662 194.325 243.644 194.24 243.658L176.888 247.217C176.802 247.235 176.728 247.285 176.68 247.358C176.632 247.431 176.614 247.52 176.632 247.605L176.634 247.612Z" fill="#0C0C0C"/>
</g>
<g opacity="0.25">
<path d="M177.909 255.089C177.928 255.173 177.979 255.245 178.051 255.291C178.123 255.338 178.211 255.354 178.295 255.337L192.136 252.499C192.18 252.492 192.222 252.476 192.259 252.453C192.297 252.429 192.329 252.398 192.354 252.361C192.379 252.325 192.397 252.283 192.406 252.24C192.415 252.196 192.415 252.152 192.406 252.108C192.397 252.065 192.379 252.023 192.354 251.987C192.329 251.95 192.296 251.919 192.259 251.896C192.221 251.872 192.179 251.856 192.135 251.849C192.092 251.842 192.047 251.844 192.004 251.855L178.163 254.694C178.12 254.703 178.08 254.719 178.045 254.744C178.009 254.768 177.978 254.799 177.955 254.835C177.931 254.87 177.914 254.911 177.906 254.953C177.898 254.995 177.898 255.039 177.907 255.081L177.909 255.089Z" fill="#0C0C0C"/>
</g>
<path d="M165.571 274.601L30.4257 299.022C26.2085 299.481 21.9422 298.957 17.9617 297.49C13.9812 296.024 10.3947 293.654 7.48375 290.569C4.57277 287.483 2.41647 283.765 1.18407 279.705C-0.0483326 275.646 -0.323305 271.357 0.380728 267.173L19.2997 154.716C20.5078 147.536 24.5189 141.129 30.4507 136.905C36.3825 132.682 43.749 130.988 50.9297 132.196C58.1105 133.404 64.5172 137.415 68.7405 143.347C72.9638 149.279 74.6578 156.646 73.4497 163.826L60.5497 241.241L159.629 228.801L165.571 274.601Z" fill="#EFC65C"/>
<path d="M30.4247 299.522C30.2999 299.522 30.1798 299.475 30.0878 299.391C29.9959 299.306 29.9388 299.191 29.9277 299.066C29.9167 298.942 29.9526 298.818 30.0282 298.719C30.1039 298.62 30.2139 298.552 30.3367 298.53L165.014 274.192L159.2 229.356L60.6107 241.737C60.5334 241.748 60.4548 241.74 60.3812 241.714C60.3077 241.688 60.2414 241.645 60.1877 241.588C60.1336 241.532 60.0934 241.464 60.0703 241.389C60.0472 241.315 60.0419 241.236 60.0547 241.159L68.2547 191.682C68.2654 191.617 68.2887 191.555 68.3234 191.499C68.3581 191.444 68.4034 191.395 68.4568 191.357C68.5102 191.319 68.5706 191.291 68.6346 191.276C68.6986 191.262 68.7649 191.259 68.8297 191.27C68.8946 191.281 68.9568 191.304 69.0127 191.339C69.0685 191.374 69.117 191.419 69.1553 191.473C69.1935 191.526 69.2209 191.587 69.2357 191.651C69.2505 191.715 69.2526 191.781 69.2417 191.846L61.1507 240.661L159.567 228.301C159.698 228.285 159.83 228.321 159.935 228.402C160.039 228.482 160.108 228.601 160.125 228.732L166.067 274.532C166.083 274.659 166.05 274.788 165.975 274.892C165.899 274.996 165.786 275.066 165.66 275.089L30.5147 299.515C30.4849 299.519 30.4548 299.522 30.4247 299.522Z" fill="#0C0C0C"/>
<path d="M60.4704 240.749L51.777 242.141L51.9353 243.129L60.6286 241.737L60.4704 240.749Z" fill="#0C0C0C"/>
<path d="M769.791 770.147H9.37175C9.1861 770.147 9.00805 770.074 8.87678 769.942C8.7455 769.811 8.67175 769.633 8.67175 769.447C8.67175 769.262 8.7455 769.084 8.87678 768.952C9.00805 768.821 9.1861 768.747 9.37175 768.747H769.791C769.883 768.747 769.974 768.765 770.059 768.801C770.144 768.836 770.221 768.887 770.286 768.952C770.351 769.017 770.402 769.095 770.438 769.179C770.473 769.264 770.491 769.355 770.491 769.447C770.491 769.539 770.473 769.63 770.438 769.715C770.402 769.8 770.351 769.877 770.286 769.942C770.221 770.007 770.144 770.059 770.059 770.094C769.974 770.129 769.883 770.147 769.791 770.147Z" fill="#292A2E"/>
<path d="M733.665 662.345C733.557 662.345 733.45 662.324 733.35 662.283C733.25 662.241 733.16 662.181 733.084 662.104C731.926 660.946 730.038 639.697 724.953 576.43C722.872 550.542 720.906 526.091 719.472 511.23C719.372 510.168 718.959 510.045 718.823 510.004C716.86 509.412 710.889 514.12 707.556 518.243C707.419 518.413 707.22 518.521 707.003 518.544C706.786 518.567 706.569 518.503 706.399 518.366C706.23 518.229 706.121 518.03 706.098 517.813C706.075 517.596 706.14 517.379 706.277 517.209C708.477 514.483 715.666 507.337 719.296 508.43C719.842 508.617 720.313 508.975 720.64 509.451C720.966 509.927 721.131 510.495 721.109 511.072C722.544 525.945 724.509 550.403 726.592 576.297C729.682 614.744 733.182 658.297 734.333 661.042C734.42 661.165 734.472 661.31 734.483 661.46C734.494 661.611 734.463 661.761 734.394 661.895C734.325 662.029 734.221 662.142 734.092 662.221C733.963 662.3 733.816 662.342 733.665 662.342V662.345Z" fill="#494949"/>
<path d="M717.36 538.497C731 527.563 735.521 510.545 727.458 500.485C719.394 490.425 701.799 491.134 688.159 502.068C674.518 513.002 669.997 530.021 678.061 540.081C686.124 550.14 703.719 549.432 717.36 538.497Z" fill="#0CBC8B"/>
<path opacity="0.2" d="M717.36 538.497C731 527.563 735.521 510.545 727.458 500.485C719.394 490.425 701.799 491.134 688.159 502.068C674.518 513.002 669.997 530.021 678.061 540.081C686.124 550.14 703.719 549.432 717.36 538.497Z" fill="white"/>
<path d="M681.885 542.64C681.807 542.64 681.73 542.618 681.664 542.577C681.598 542.535 681.545 542.475 681.512 542.404C681.479 542.334 681.467 542.255 681.477 542.178C681.487 542.1 681.518 542.027 681.569 541.967L720.444 495.088C720.513 495.004 720.613 494.951 720.722 494.941C720.83 494.931 720.939 494.965 721.023 495.034C721.107 495.104 721.159 495.204 721.17 495.312C721.18 495.421 721.146 495.529 721.077 495.613L682.2 542.492C682.161 542.538 682.113 542.576 682.059 542.601C682.004 542.627 681.945 542.64 681.885 542.64Z" fill="white"/>
<path d="M742.144 652.295C742.052 652.296 741.96 652.28 741.874 652.249C741.772 652.214 741.678 652.159 741.597 652.087C741.516 652.015 741.45 651.929 741.403 651.831C741.356 651.734 741.329 651.629 741.323 651.521C741.317 651.413 741.332 651.305 741.368 651.203L755.968 609.208C756.397 607.974 757.129 606.867 758.098 605.989C759.066 605.112 760.239 604.491 761.509 604.184C762.78 603.878 764.107 603.895 765.369 604.234C766.631 604.574 767.787 605.225 768.733 606.127L776.453 613.502C776.61 613.653 776.702 613.86 776.707 614.078C776.712 614.296 776.63 614.507 776.479 614.665C776.328 614.822 776.121 614.914 775.903 614.919C775.685 614.924 775.474 614.842 775.317 614.691L767.597 607.316C766.85 606.604 765.937 606.09 764.941 605.822C763.945 605.554 762.897 605.54 761.894 605.783C760.892 606.025 759.966 606.514 759.201 607.207C758.437 607.9 757.859 608.774 757.52 609.748L742.92 651.748C742.863 651.909 742.758 652.047 742.619 652.145C742.48 652.243 742.314 652.296 742.144 652.295Z" fill="#494949"/>
<path d="M798.024 636.754C808.133 628.753 807.532 611.154 796.682 597.446C785.832 583.739 768.842 579.113 758.733 587.115C748.624 595.117 749.224 612.715 760.074 626.423C770.925 640.131 787.915 644.756 798.024 636.754Z" fill="#0CBC8B"/>
<path d="M727.031 659.667C726.846 659.667 726.666 659.605 726.521 659.49C726.376 659.376 726.274 659.216 726.231 659.036L701.731 556.575C701.564 555.877 701.207 555.237 700.701 554.728C700.194 554.219 699.557 553.859 698.859 553.689C698.161 553.519 697.429 553.544 696.745 553.763C696.061 553.981 695.45 554.384 694.98 554.927L687.426 563.657C687.283 563.822 687.081 563.923 686.863 563.939C686.646 563.955 686.431 563.883 686.266 563.741C686.101 563.598 686 563.396 685.984 563.178C685.969 562.961 686.04 562.746 686.183 562.581L693.737 553.852C694.405 553.08 695.273 552.508 696.245 552.197C697.217 551.887 698.257 551.851 699.248 552.093C700.24 552.335 701.146 552.845 701.866 553.569C702.586 554.292 703.092 555.2 703.33 556.193L727.83 658.654C727.855 658.759 727.859 658.868 727.842 658.975C727.826 659.082 727.788 659.184 727.731 659.276C727.675 659.368 727.601 659.448 727.513 659.511C727.426 659.575 727.327 659.62 727.222 659.645C727.159 659.66 727.095 659.667 727.031 659.667Z" fill="#494949"/>
<path d="M717.993 586.423C720.972 569.197 713.088 553.451 700.384 551.254C687.68 549.057 674.967 561.241 671.988 578.467C669.009 595.694 676.893 611.439 689.597 613.636C702.301 615.833 715.014 603.649 717.993 586.423Z" fill="#0CBC8B"/>
<path d="M733.666 662.345C733.632 662.345 733.599 662.343 733.566 662.339C733.349 662.313 733.153 662.201 733.018 662.029C732.884 661.858 732.823 661.64 732.85 661.423L748.5 534.372C748.67 532.988 749.237 531.683 750.131 530.613C751.026 529.543 752.21 528.755 753.542 528.342C754.874 527.929 756.297 527.91 757.64 528.287C758.982 528.664 760.188 529.42 761.111 530.465L778.997 550.723C779.071 550.804 779.128 550.898 779.165 551.001C779.202 551.104 779.219 551.213 779.213 551.322C779.207 551.432 779.18 551.539 779.132 551.637C779.085 551.736 779.018 551.824 778.936 551.896C778.854 551.969 778.759 552.024 778.655 552.059C778.551 552.094 778.442 552.108 778.333 552.1C778.224 552.092 778.117 552.062 778.02 552.013C777.922 551.963 777.835 551.895 777.765 551.811L759.879 531.554C759.164 530.748 758.233 530.166 757.196 529.876C756.159 529.586 755.06 529.601 754.032 529.92C753.003 530.238 752.088 530.847 751.396 531.672C750.705 532.498 750.266 533.505 750.132 534.573L734.484 661.623C734.459 661.823 734.363 662.007 734.212 662.14C734.061 662.273 733.867 662.346 733.666 662.345Z" fill="#494949"/>
<path d="M797.338 561.981C803.579 550.699 796.236 534.694 780.939 526.232C765.641 517.77 748.181 520.056 741.941 531.338C735.7 542.62 743.043 558.625 758.34 567.087C773.638 575.548 791.098 573.263 797.338 561.981Z" fill="#0CBC8B"/>
<path opacity="0.2" d="M798.024 636.754C808.133 628.753 807.532 611.154 796.682 597.446C785.832 583.739 768.842 579.113 758.733 587.115C748.624 595.117 749.224 612.715 760.074 626.423C770.925 640.131 787.915 644.756 798.024 636.754Z" fill="white"/>
<path opacity="0.5" d="M717.993 586.423C720.972 569.197 713.088 553.451 700.384 551.254C687.68 549.057 674.967 561.241 671.988 578.467C669.009 595.694 676.893 611.439 689.597 613.636C702.301 615.833 715.014 603.649 717.993 586.423Z" fill="white"/>
<path opacity="0.5" d="M797.338 561.981C803.579 550.699 796.236 534.694 780.939 526.232C765.641 517.77 748.181 520.056 741.941 531.338C735.7 542.62 743.043 558.625 758.34 567.087C773.638 575.548 791.098 573.263 797.338 561.981Z" fill="white"/>
<path d="M753.68 770.147H713.65L707.017 642.072H760.313L753.68 770.147Z" fill="#292A2E"/>
<path opacity="0.3" d="M753.68 770.147H713.65L707.017 642.072H760.313L753.68 770.147Z" fill="white"/>
<path d="M798.025 637.159C797.962 637.159 797.9 637.145 797.844 637.118C797.788 637.09 797.738 637.051 797.7 637.001L758.408 587.361C758.34 587.276 758.309 587.167 758.322 587.058C758.335 586.95 758.39 586.851 758.475 586.784C758.561 586.716 758.67 586.685 758.778 586.698C758.886 586.711 758.985 586.766 759.053 586.851L798.345 636.49C798.393 636.551 798.423 636.623 798.432 636.7C798.441 636.777 798.427 636.855 798.394 636.925C798.36 636.994 798.307 637.053 798.242 637.094C798.176 637.135 798.1 637.157 798.023 637.156L798.025 637.159Z" fill="white"/>
<path d="M794.725 565.957C794.638 565.958 794.553 565.93 794.483 565.878L744.2 529.164C744.154 529.133 744.115 529.093 744.085 529.047C744.055 529.001 744.035 528.949 744.025 528.894C744.016 528.84 744.017 528.784 744.03 528.73C744.043 528.676 744.066 528.626 744.098 528.581C744.131 528.537 744.172 528.499 744.22 528.471C744.267 528.443 744.32 528.424 744.375 528.417C744.429 528.409 744.485 528.413 744.538 528.427C744.592 528.442 744.641 528.467 744.685 528.501L794.965 565.214C795.035 565.265 795.087 565.337 795.114 565.42C795.14 565.503 795.14 565.591 795.113 565.674C795.086 565.756 795.034 565.828 794.963 565.879C794.893 565.93 794.808 565.957 794.722 565.957H794.725Z" fill="white"/>
<path d="M687.554 613.101C687.518 613.102 687.482 613.097 687.447 613.087C687.342 613.059 687.253 612.991 687.198 612.897C687.144 612.804 687.129 612.692 687.156 612.587L703.163 552.618C703.193 552.515 703.262 552.428 703.355 552.375C703.449 552.322 703.56 552.308 703.663 552.336C703.767 552.363 703.856 552.431 703.911 552.523C703.966 552.616 703.982 552.726 703.957 552.83L687.95 612.794C687.927 612.882 687.876 612.96 687.804 613.015C687.732 613.071 687.644 613.101 687.554 613.101Z" fill="white"/>
</svg>
