<svg width="977" height="1187" viewBox="0 0 977 1187" fill="none" xmlns="http://www.w3.org/2000/svg">
<g clip-path="url(#clip0_2066_607)">
<path fill-rule="evenodd" clip-rule="evenodd" d="M693.95 421.477C826.067 406.446 913.258 509.701 1004.88 570.597C1079.43 620.15 1142.88 674.286 1172.46 739.52C1201.1 802.679 1194.01 867.83 1168.54 931.508C1141.28 999.652 1112.97 1074.02 1021.95 1115.79C930.652 1157.68 806.604 1140.29 693.95 1149.3C559.142 1160.08 420.257 1210.64 298.101 1173.68C172.018 1135.54 117.546 1043.46 72.1089 961.17C26.0398 877.738 -44.8299 775.296 38.7085 703.92C125.57 629.706 334.744 685.365 456.179 633.02C572.857 582.726 554.174 437.378 693.95 421.477Z" fill="#F2C57A"/>
<path fill-rule="evenodd" clip-rule="evenodd" d="M484.572 170.142C565.454 174.043 601.422 253.069 659.427 297.702C704.519 332.399 759.333 358.743 787.459 403.203C816.187 448.615 827.867 499.968 819.197 550.257C810.488 600.777 783.682 649.381 738.706 686.001C695.013 721.575 628.612 727.14 573.245 750.509C499.881 781.475 443.348 851.612 360.484 845.641C278.916 839.765 209.951 781.417 177.745 722.014C147.586 666.389 205.529 605.033 197.417 544.873C189.775 488.207 112.107 440.136 132.357 385.434C152.451 331.151 238.743 314.785 295.413 280.145C358.614 241.514 404.764 166.293 484.572 170.142Z" fill="#EFC65C"/>
<path fill-rule="evenodd" clip-rule="evenodd" d="M475.705 320.282C486.158 169.364 628.663 37.82 780.817 5.44658C920.572 -24.2885 1049.69 84.6666 1162.42 174.173C1235.54 232.234 1261.31 320.788 1287.85 408.041C1308.4 475.623 1298.81 540.183 1294.92 609.908C1288.29 728.736 1349.22 873.641 1257.58 950.944C1161.93 1031.62 999.085 1017.59 886.603 954.316C784.01 896.605 798.724 754.659 735.666 657.357C655.714 533.988 465.784 463.524 475.705 320.282Z" fill="#F9B572"/>
</g>
<defs>
<clipPath id="clip0_2066_607">
<rect width="977" height="1187" fill="white"/>
</clipPath>
</defs>
</svg>
