<svg width="565" height="320" viewBox="0 0 565 320" fill="none" xmlns="http://www.w3.org/2000/svg">
<g clip-path="url(#clip0_763_516)">
<path d="M365.623 121.08C352.95 52.008 296.48 0.154236 228.642 0.154236C174.782 0.154236 128.003 32.9883 104.707 81.0381C48.6102 87.4448 5 138.498 5 200.362C5 266.631 55.1331 320.487 116.821 320.487H359.1C410.538 320.487 452.284 275.64 452.284 220.383C452.284 167.528 414.079 124.683 365.623 121.08Z" fill="white"/>
<path d="M478.339 120.439C465.666 51.3672 409.196 -0.486572 341.358 -0.486572C287.497 -0.486572 240.719 32.3475 217.423 80.3973C161.326 86.804 117.716 137.857 117.716 199.721C117.716 265.99 167.849 319.846 229.537 319.846H471.816C523.254 319.846 565 274.999 565 219.742C565 166.887 526.795 124.043 478.339 120.439Z" fill="white"/>
</g>
<defs>
<clipPath id="clip0_763_516">
<rect width="565" height="320" fill="white"/>
</clipPath>
</defs>
</svg>
