<svg width="788" height="775" viewBox="0 0 788 775" fill="none" xmlns="http://www.w3.org/2000/svg">
<g clip-path="url(#clip0_2433_1447)">
<path d="M316.521 614.225H306.272C305.457 614.226 304.662 613.974 303.997 613.503C303.332 613.032 302.83 612.366 302.56 611.597C301.775 609.345 300.847 607.144 299.781 605.01C299.413 604.272 299.287 603.436 299.421 602.622C299.555 601.808 299.942 601.057 300.528 600.476L307.813 593.191C308.553 592.45 308.968 591.445 308.968 590.398C308.968 589.351 308.553 588.346 307.813 587.605L292.074 571.877C291.334 571.136 290.329 570.721 289.282 570.721C288.235 570.721 287.23 571.136 286.489 571.877L279.074 579.294C278.496 579.873 277.753 580.257 276.946 580.394C276.14 580.53 275.311 580.411 274.575 580.053C272.482 579.031 270.325 578.142 268.119 577.392C267.342 577.127 266.668 576.626 266.19 575.958C265.713 575.289 265.457 574.488 265.458 573.667V563.16C265.459 562.642 265.357 562.129 265.158 561.65C264.96 561.171 264.669 560.736 264.303 560.369C263.936 560.003 263.501 559.712 263.022 559.514C262.543 559.315 262.03 559.213 261.512 559.213H239.261C238.743 559.213 238.23 559.315 237.751 559.514C237.272 559.712 236.837 560.003 236.47 560.369C236.104 560.736 235.813 561.171 235.615 561.65C235.416 562.129 235.314 562.642 235.315 563.16V573.667C235.316 574.488 235.06 575.289 234.583 575.957C234.106 576.626 233.432 577.127 232.654 577.392C230.448 578.142 228.292 579.031 226.199 580.053C225.463 580.411 224.634 580.53 223.828 580.394C223.021 580.258 222.277 579.873 221.7 579.294L214.284 571.877C213.543 571.136 212.538 570.721 211.491 570.721C210.444 570.721 209.439 571.136 208.699 571.877L192.961 587.608C192.221 588.349 191.805 589.354 191.805 590.401C191.805 591.448 192.221 592.453 192.961 593.194L200.245 600.479C200.831 601.06 201.218 601.811 201.352 602.625C201.486 603.439 201.36 604.275 200.992 605.013C199.926 607.146 199 609.347 198.22 611.6C197.948 612.369 197.445 613.035 196.779 613.505C196.113 613.976 195.318 614.228 194.502 614.228H184.251C183.732 614.228 183.219 614.33 182.74 614.528C182.261 614.726 181.826 615.017 181.46 615.383C181.093 615.75 180.803 616.185 180.604 616.664C180.406 617.143 180.304 617.656 180.304 618.175V640.431C180.304 640.95 180.406 641.463 180.604 641.942C180.803 642.421 181.093 642.856 181.46 643.222C181.826 643.589 182.261 643.88 182.74 644.078C183.219 644.276 183.732 644.378 184.251 644.378H194.234C195.065 644.377 195.874 644.639 196.547 645.125C197.219 645.612 197.721 646.298 197.98 647.087C198.751 649.401 199.672 651.661 200.738 653.854C201.1 654.593 201.223 655.426 201.089 656.238C200.955 657.049 200.572 657.799 199.991 658.382L192.963 665.412C192.596 665.778 192.306 666.213 192.107 666.691C191.909 667.17 191.807 667.683 191.807 668.201C191.807 668.719 191.909 669.232 192.107 669.71C192.306 670.189 192.596 670.624 192.963 670.99L208.701 686.729C209.441 687.469 210.446 687.885 211.493 687.885C212.54 687.885 213.545 687.469 214.286 686.729L221.176 679.837C221.764 679.252 222.52 678.866 223.339 678.735C224.158 678.603 224.997 678.733 225.738 679.105C227.967 680.219 230.27 681.18 232.629 681.98C233.412 682.245 234.092 682.748 234.574 683.418C235.056 684.089 235.316 684.893 235.318 685.719V695.439C235.317 695.957 235.419 696.471 235.617 696.951C235.815 697.43 236.105 697.866 236.472 698.233C236.838 698.6 237.274 698.891 237.753 699.09C238.232 699.289 238.745 699.391 239.264 699.391H261.512C262.031 699.391 262.544 699.289 263.023 699.09C263.503 698.892 263.938 698.6 264.305 698.233C264.671 697.866 264.962 697.43 265.16 696.951C265.358 696.471 265.459 695.957 265.458 695.439V685.719C265.46 684.893 265.72 684.089 266.202 683.418C266.684 682.748 267.364 682.245 268.146 681.98C270.506 681.18 272.809 680.219 275.038 679.105C275.779 678.733 276.618 678.603 277.437 678.735C278.256 678.866 279.012 679.252 279.6 679.837L286.49 686.729C287.231 687.469 288.236 687.885 289.283 687.885C290.33 687.885 291.335 687.469 292.075 686.729L307.814 670.99C308.18 670.623 308.471 670.189 308.669 669.71C308.867 669.232 308.97 668.719 308.97 668.201C308.97 667.683 308.867 667.17 308.669 666.692C308.471 666.213 308.18 665.778 307.814 665.412L300.784 658.382C300.205 657.799 299.821 657.049 299.687 656.238C299.553 655.426 299.676 654.593 300.038 653.854C301.104 651.662 302.026 649.401 302.796 647.087C303.055 646.299 303.557 645.612 304.229 645.125C304.902 644.639 305.711 644.377 306.542 644.378H316.522C317.04 644.378 317.554 644.276 318.033 644.078C318.512 643.88 318.947 643.589 319.313 643.222C319.68 642.856 319.97 642.421 320.169 641.942C320.367 641.463 320.469 640.95 320.469 640.431V618.175C320.469 617.656 320.368 617.142 320.169 616.663C319.971 616.184 319.681 615.748 319.314 615.381C318.947 615.014 318.512 614.723 318.033 614.525C317.553 614.326 317.04 614.224 316.521 614.225ZM250.389 662.191C243.885 662.191 237.526 660.262 232.117 656.648C226.709 653.034 222.493 647.897 220.004 641.887C217.515 635.877 216.863 629.264 218.133 622.884C219.402 616.504 222.534 610.643 227.134 606.043C231.733 601.443 237.593 598.311 243.973 597.042C250.353 595.773 256.966 596.424 262.975 598.913C268.985 601.403 274.122 605.619 277.736 611.027C281.349 616.436 283.278 622.795 283.278 629.3C283.278 638.024 279.813 646.389 273.645 652.558C267.478 658.726 259.112 662.191 250.389 662.191Z" fill="#F4F4F4"/>
<path d="M188.504 481.637H174.55C173.441 481.638 172.359 481.295 171.453 480.654C170.548 480.014 169.864 479.107 169.497 478.061C168.428 474.994 167.165 471.998 165.714 469.092C165.213 468.087 165.041 466.95 165.224 465.841C165.406 464.733 165.933 463.711 166.73 462.919L176.648 453.001C177.656 451.992 178.222 450.625 178.222 449.199C178.222 447.773 177.656 446.406 176.648 445.397L155.222 423.979C154.213 422.971 152.846 422.405 151.42 422.405C149.994 422.405 148.627 422.971 147.618 423.979L137.522 434.076C136.736 434.865 135.723 435.389 134.624 435.575C133.526 435.761 132.397 435.598 131.396 435.111C128.546 433.719 125.611 432.509 122.608 431.488C121.549 431.127 120.631 430.444 119.981 429.535C119.331 428.625 118.983 427.534 118.985 426.416V412.112C118.985 411.407 118.846 410.708 118.576 410.056C118.306 409.404 117.91 408.812 117.411 408.313C116.912 407.814 116.32 407.418 115.668 407.148C115.016 406.878 114.317 406.739 113.612 406.739H83.3219C82.6162 406.739 81.9175 406.878 81.2655 407.148C80.6135 407.418 80.0211 407.814 79.5222 408.313C79.0232 408.812 78.6274 409.404 78.3574 410.056C78.0874 410.708 77.9486 411.407 77.9487 412.112V426.416C77.9507 427.534 77.6023 428.625 76.9525 429.535C76.3027 430.444 75.3841 431.127 74.3259 431.488C71.3227 432.509 68.3872 433.719 65.5369 435.111C64.5352 435.598 63.4061 435.761 62.3076 435.575C61.2091 435.39 60.196 434.866 59.4099 434.076L49.3134 423.979C48.3047 422.971 46.9373 422.405 45.5116 422.405C44.0859 422.405 42.7185 422.971 41.7099 423.979L20.2841 445.397C19.2765 446.406 18.7106 447.773 18.7106 449.199C18.7106 450.625 19.2765 451.992 20.2841 453.001L30.2018 462.919C30.9987 463.71 31.526 464.733 31.7085 465.841C31.891 466.949 31.7195 468.087 31.2185 469.092C29.7668 471.996 28.5063 474.992 27.4447 478.061C27.0743 479.107 26.3885 480.013 25.4819 480.653C24.5753 481.294 23.4924 481.637 22.3824 481.637H8.42815C7.72251 481.636 7.0237 481.775 6.37168 482.045C5.71967 482.315 5.12722 482.71 4.62821 483.209C4.1292 483.708 3.7334 484.301 3.46346 484.953C3.19351 485.605 3.0547 486.303 3.05496 487.009V517.31C3.05457 518.016 3.19328 518.715 3.46317 519.367C3.73306 520.019 4.12883 520.612 4.62785 521.111C5.12688 521.61 5.71937 522.006 6.37145 522.276C7.02354 522.546 7.72242 522.684 8.42815 522.684H22.0156C23.1456 522.683 24.2469 523.04 25.1624 523.702C26.0779 524.365 26.7609 525.299 27.1138 526.373C28.162 529.523 29.4163 532.601 30.8686 535.586C31.3612 536.592 31.5279 537.726 31.3457 538.83C31.1635 539.935 30.6413 540.956 29.8519 541.749L20.2821 551.32C19.7828 551.818 19.3867 552.411 19.1164 553.062C18.8461 553.714 18.707 554.413 18.707 555.119C18.707 555.824 18.8461 556.523 19.1164 557.175C19.3867 557.827 19.7828 558.419 20.2821 558.918L41.7079 580.345C42.7166 581.352 44.0839 581.918 45.5096 581.918C46.9353 581.918 48.3027 581.352 49.3113 580.345L58.6932 570.962C59.4925 570.165 60.5225 569.639 61.6372 569.459C62.752 569.28 63.8949 569.456 64.9041 569.962C67.9388 571.479 71.0733 572.786 74.2859 573.876C75.351 574.237 76.2765 574.922 76.9328 575.835C77.5891 576.748 77.9433 577.843 77.9457 578.968V592.199C77.9446 592.905 78.0828 593.605 78.3524 594.258C78.6219 594.911 79.0175 595.504 79.5166 596.004C80.0156 596.504 80.6083 596.901 81.2607 597.171C81.9132 597.442 82.6125 597.581 83.3189 597.582H113.609C114.315 597.581 115.014 597.442 115.667 597.171C116.319 596.901 116.912 596.504 117.411 596.004C117.91 595.504 118.306 594.911 118.575 594.258C118.845 593.605 118.983 592.905 118.982 592.199V578.968C118.984 577.843 119.338 576.748 119.994 575.834C120.651 574.921 121.576 574.237 122.642 573.876C125.854 572.786 128.989 571.479 132.023 569.962C133.033 569.456 134.176 569.28 135.29 569.459C136.405 569.639 137.435 570.165 138.234 570.962L147.615 580.345C148.624 581.352 149.991 581.918 151.417 581.918C152.843 581.918 154.21 581.352 155.219 580.345L176.645 558.918C177.145 558.419 177.541 557.827 177.811 557.175C178.081 556.523 178.221 555.824 178.221 555.119C178.221 554.413 178.081 553.714 177.811 553.062C177.541 552.411 177.145 551.818 176.645 551.32L167.076 541.749C166.286 540.956 165.764 539.935 165.582 538.83C165.4 537.726 165.566 536.592 166.059 535.586C167.511 532.601 168.765 529.523 169.814 526.373C170.167 525.299 170.85 524.365 171.765 523.702C172.681 523.04 173.782 522.683 174.912 522.684H188.499C189.205 522.684 189.904 522.546 190.556 522.276C191.208 522.006 191.801 521.61 192.3 521.111C192.799 520.612 193.194 520.019 193.464 519.367C193.734 518.715 193.873 518.016 193.873 517.31V487.009C193.873 486.304 193.734 485.605 193.465 484.954C193.195 484.302 192.8 483.71 192.301 483.211C191.803 482.712 191.211 482.316 190.559 482.046C189.908 481.776 189.21 481.637 188.504 481.637ZM98.4668 546.935C89.6106 546.935 80.9534 544.309 73.5897 539.389C66.226 534.468 60.4867 527.475 57.0975 519.293C53.7083 511.11 52.8215 502.106 54.5492 493.42C56.2769 484.734 60.5415 476.755 66.8037 470.492C73.0659 464.23 81.0445 459.965 89.7305 458.237C98.4164 456.509 107.42 457.396 115.602 460.785C123.784 464.175 130.777 469.914 135.697 477.278C140.617 484.642 143.243 493.3 143.243 502.157C143.242 514.033 138.524 525.422 130.128 533.819C121.731 542.217 110.342 546.934 98.4668 546.935Z" fill="#F4F4F4"/>
<path d="M109.067 572.782L107.34 572.971L128.652 767.729L130.378 767.541L109.067 572.782Z" fill="#292A2E"/>
<path d="M164.262 657.808L153.778 761.532L155.506 761.707L165.99 657.982L164.262 657.808Z" fill="#292A2E"/>
<path d="M182.291 748.994H104.498V774.241H182.291V748.994Z" fill="#292A2E"/>
<path opacity="0.2" d="M182.291 748.994H104.498V774.241H182.291V748.994Z" fill="white"/>
<path d="M229.19 702.505C243.927 682.918 236.902 652.764 213.499 635.154C190.096 617.545 159.177 619.148 144.44 638.736C129.703 658.323 136.728 688.477 160.132 706.087C183.535 723.697 214.453 722.093 229.19 702.505Z" fill="#0CBC8B"/>
<path opacity="0.2" d="M229.19 702.505C243.927 682.918 236.902 652.764 213.499 635.154C190.096 617.545 159.177 619.148 144.44 638.736C129.703 658.323 136.728 688.477 160.132 706.087C183.535 723.697 214.453 722.093 229.19 702.505Z" fill="white"/>
<path opacity="0.5" d="M229.187 702.509C228.197 703.83 227.117 705.081 225.955 706.254C209.732 716.618 185.787 714.986 166.792 700.69C143.391 683.084 136.367 652.931 151.106 633.343C152.096 632.025 153.173 630.774 154.33 629.598C170.56 619.225 194.497 620.865 213.501 635.154C236.901 652.767 243.925 682.921 229.187 702.509Z" fill="white"/>
<path d="M120.621 628.191C143.805 610.294 150.106 579.6 134.695 559.634C119.284 539.668 87.9963 537.991 64.8123 555.888C41.6282 573.785 35.327 604.479 50.7381 624.445C66.1492 644.411 97.4368 646.088 120.621 628.191Z" fill="#0CBC8B"/>
<path opacity="0.2" d="M113.278 623.056C95.3228 636.925 72.5045 639.039 55.9641 630.01C54.05 628.324 52.3016 626.458 50.7429 624.439C35.3291 604.479 41.6299 573.781 64.8131 555.888C82.768 542.026 105.586 539.905 122.119 548.927C124.037 550.613 125.788 552.481 127.347 554.505C142.762 574.465 136.461 605.162 113.278 623.056Z" fill="white"/>
<path d="M734.666 443.892H473.766C467.559 443.892 462.527 448.925 462.527 455.132V584.596C462.527 590.804 467.559 595.836 473.766 595.836H734.666C740.873 595.836 745.905 590.804 745.905 584.596V455.132C745.905 448.925 740.873 443.892 734.666 443.892Z" fill="#F4F4F4"/>
<path d="M635.054 530.172H616.967C615.865 530.172 614.972 531.065 614.972 532.166V572.259C614.972 573.36 615.865 574.253 616.967 574.253H635.054C636.155 574.253 637.048 573.36 637.048 572.259V532.166C637.048 531.065 636.155 530.172 635.054 530.172Z" fill="white"/>
<path d="M678.643 488.094H660.556C659.455 488.094 658.562 488.987 658.562 490.088V572.259C658.562 573.36 659.455 574.253 660.556 574.253H678.643C679.744 574.253 680.637 573.36 680.637 572.259V490.088C680.637 488.987 679.744 488.094 678.643 488.094Z" fill="white"/>
<path d="M722.232 520.291H704.145C703.044 520.291 702.151 521.183 702.151 522.285V572.259C702.151 573.36 703.044 574.253 704.145 574.253H722.232C723.334 574.253 724.227 573.36 724.227 572.259V522.285C724.227 521.183 723.334 520.291 722.232 520.291Z" fill="white"/>
<path d="M504.287 530.172H486.2C485.098 530.172 484.206 531.065 484.206 532.166V572.259C484.206 573.36 485.098 574.253 486.2 574.253H504.287C505.388 574.253 506.281 573.36 506.281 572.259V532.166C506.281 531.065 505.388 530.172 504.287 530.172Z" fill="white"/>
<path d="M547.876 488.094H529.789C528.688 488.094 527.795 488.987 527.795 490.088V572.259C527.795 573.36 528.688 574.253 529.789 574.253H547.876C548.977 574.253 549.87 573.36 549.87 572.259V490.088C549.87 488.987 548.977 488.094 547.876 488.094Z" fill="white"/>
<path d="M591.465 520.291H573.378C572.277 520.291 571.384 521.183 571.384 522.285V572.259C571.384 573.36 572.277 574.253 573.378 574.253H591.465C592.567 574.253 593.46 573.36 593.46 572.259V522.285C593.46 521.183 592.567 520.291 591.465 520.291Z" fill="white"/>
<path d="M625.065 53.5347C625.065 53.5347 614.719 44.5793 613.293 25.4638C612.184 10.668 625.07 21.065 625.07 21.065C625.07 21.065 624.376 10.4 632.004 11.9676C639.631 13.5352 643.2 24.9259 643.2 24.9259" fill="#0C0C0C"/>
<path d="M671.722 15.8723C671.722 15.8723 709.658 22.5294 692.375 73.3849H682.085" fill="#0C0C0C"/>
<path d="M696.788 729.6C696.788 729.6 692.274 752.993 670.369 754.302C648.463 755.61 653.213 773.057 653.213 773.057H736.923V731.232L696.788 729.6Z" fill="#F2C57A"/>
<path d="M742.601 302.792C742.601 302.792 742.338 295.759 742.393 311.713C742.601 371.225 740.618 744.533 740.618 744.533L685.612 744.071L652.29 300.373L742.601 302.792Z" fill="#262626"/>
<path d="M602.857 729.6C602.857 729.6 598.344 752.993 576.438 754.302C554.533 755.61 559.283 773.057 559.283 773.057H642.994V731.232L602.857 729.6Z" fill="#F2C57A"/>
<path d="M592.218 307.412C592.218 307.412 585.346 510.81 586.061 520.751L592.522 742.988L646.621 743.988L655.344 512.71C655.344 512.71 661.062 448.913 676.476 389.672C684.362 359.267 689.108 328.134 690.639 296.76L592.218 307.412Z" fill="#262626"/>
<path d="M663.587 451.622L659.078 382.633C659.078 382.633 654.444 411.314 654.444 436.035C654.444 448.118 656.932 495.96 656.932 495.96L663.587 451.622Z" fill="#0A0A0A"/>
<path d="M628.997 126.256C629.166 126.234 631.034 157.238 667.05 154.535C691.983 152.667 700.874 126.212 701.445 126.212C698.757 125.641 695.435 124.773 694.115 124.476C691.237 123.808 688.631 122.28 686.643 120.095C684.655 117.909 683.38 115.171 682.986 112.243C682.258 107.844 683.494 85.3645 683.113 80.9177L644.84 89.4613C645.375 98.8516 649.118 120.622 635.999 124.475C633.816 125.113 631.465 125.699 628.997 126.256Z" fill="#E98862"/>
<path opacity="0.52" d="M644.304 115.579C644.903 113.647 645.289 111.654 645.455 109.638C645.876 105.037 645.792 100.404 645.205 95.8216C652.984 94.7714 660.313 91.5603 666.358 86.5532C667.069 89.1785 670.977 100.649 669.895 103.141C667.85 107.857 658.237 115.579 644.304 115.579Z" fill="#0C0C0C"/>
<path d="M651.097 108.088C666.253 107.746 684.923 99.4345 686.553 79.0013L688.025 60.5636C689.655 40.1294 680.244 22.7083 661.006 21.1748C641.767 19.6392 626.066 35.0568 624.435 55.491L623.783 63.6537C623.609 66.4601 623.626 69.2751 623.833 72.0793C624.333 79.4952 625.111 90.7739 629.592 98.6647C633.824 106.115 641.415 108.306 651.097 108.088Z" fill="#E98862"/>
<path opacity="0.52" d="M645.359 88.9255C642.241 88.8579 639.182 88.0583 636.429 86.5912C636.314 86.5326 636.227 86.4307 636.187 86.3079C636.147 86.1851 636.158 86.0515 636.216 85.9364C636.275 85.8213 636.377 85.7342 636.5 85.6943C636.622 85.6544 636.756 85.6649 636.871 85.7235C642.811 88.7406 648.389 88.7306 653.002 85.6955C653.094 85.6307 653.191 85.5713 653.29 85.5175C653.407 85.4609 653.54 85.4527 653.663 85.4948C653.785 85.5369 653.885 85.6258 653.942 85.742C653.998 85.8581 654.007 85.9919 653.964 86.1141C653.922 86.2362 653.833 86.3367 653.717 86.3933C653.68 86.4133 653.617 86.4542 653.537 86.5092C651.112 88.1105 648.265 88.9518 645.359 88.9255Z" fill="#0C0C0C"/>
<path opacity="0.52" d="M645.196 93.5421C644.632 93.5392 644.069 93.488 643.514 93.3891C643.451 93.3781 643.391 93.3548 643.337 93.3205C643.283 93.2862 643.236 93.2416 643.199 93.1892C643.162 93.1368 643.136 93.0778 643.122 93.0153C643.108 92.9529 643.107 92.8883 643.118 92.8253C643.129 92.7623 643.152 92.702 643.187 92.648C643.221 92.594 643.265 92.5473 643.318 92.5106C643.37 92.4738 643.429 92.4477 643.492 92.4338C643.554 92.4199 643.619 92.4184 643.682 92.4294C647.023 93.0132 648.732 91.5786 648.804 91.5167C648.901 91.4316 649.028 91.3885 649.157 91.3971C649.286 91.4056 649.406 91.465 649.491 91.5622C649.576 91.6593 649.619 91.7863 649.611 91.9152C649.602 92.0441 649.543 92.1643 649.446 92.2495C648.221 93.1586 646.72 93.6153 645.196 93.5421Z" fill="#0C0C0C"/>
<path d="M630.142 68.0225C631.455 68.0225 632.519 66.9581 632.519 65.6451C632.519 64.3322 631.455 63.2678 630.142 63.2678C628.829 63.2678 627.765 64.3322 627.765 65.6451C627.765 66.9581 628.829 68.0225 630.142 68.0225Z" fill="#0C0C0C"/>
<path d="M654.171 68.1724C655.484 68.1724 656.548 67.108 656.548 65.795C656.548 64.4821 655.484 63.4177 654.171 63.4177C652.858 63.4177 651.794 64.4821 651.794 65.795C651.794 67.108 652.858 68.1724 654.171 68.1724Z" fill="#0C0C0C"/>
<path d="M684.862 85.1305C690.708 85.5973 695.947 79.721 696.413 73.8737C696.879 68.0264 692.397 64.4244 686.551 63.9575L683.225 67.6355L679.835 84.7306L684.862 85.1305Z" fill="#E98862"/>
<path d="M584.249 194.513C585.383 207.842 590.902 290.996 591.992 307.413H742.313C743.163 292.606 746.976 227.86 750.196 198.905C753.27 171.275 759.301 157.442 754.88 149.273C747.657 135.923 727.917 128.208 714.458 126.386C706.24 125.274 693.878 124.476 693.878 124.476C693.878 124.476 692.831 145.65 667.874 146.829C633.9 148.428 636.168 124.476 636 124.476C630.496 124.476 599.055 127.96 591.362 132.52C570.401 144.933 581.841 166.268 584.249 194.513Z" fill="#F2C57A"/>
<path d="M679.671 75.3374C679.671 75.3374 679.634 46.2667 670.979 43.8913C665.214 42.3098 650.485 49.6497 637.529 46.2667C631.859 44.7861 626.312 45.8428 625.576 48.518C625.284 49.5777 622.741 33.9022 632.518 22.7903C640.304 13.9439 663.908 12.8802 674.366 16.6531C703.317 27.0991 687.672 65.3132 687.672 65.3132L685.688 75.2024L679.671 75.3374Z" fill="#0C0C0C"/>
<g opacity="0.52">
<path d="M642.283 81.8595H642.245C640.362 81.7146 637.217 81.2597 637.324 79.8501C637.415 78.6824 641.584 66.32 642.06 64.9144C642.101 64.7935 642.188 64.6937 642.303 64.6371C642.417 64.5805 642.549 64.5716 642.67 64.6125C642.791 64.6533 642.891 64.7405 642.947 64.8548C643.004 64.9692 643.013 65.1014 642.972 65.2223C641.121 70.6977 638.346 79.1303 638.284 79.9241C638.443 80.272 640.368 80.7489 642.319 80.8998C642.442 80.9109 642.556 80.9687 642.638 81.0614C642.719 81.154 642.762 81.2744 642.757 81.3978C642.753 81.5211 642.701 81.6379 642.613 81.7242C642.525 81.8105 642.407 81.8597 642.283 81.8615V81.8595Z" fill="#0C0C0C"/>
</g>
<path d="M636.822 55.3481C635.302 54.7195 633.642 54.5037 632.012 54.7223C631.182 54.8266 630.373 55.0561 629.612 55.4031C628.834 55.753 628.103 56.199 627.436 56.7307L627.383 56.7707C627.211 56.904 626.994 56.9646 626.778 56.9397C626.562 56.9148 626.365 56.8063 626.228 56.6374C626.091 56.4685 626.025 56.2527 626.045 56.0362C626.066 55.8197 626.17 55.6197 626.336 55.4791C627.074 54.7921 627.897 54.2013 628.784 53.7206C629.683 53.2289 630.651 52.8747 631.656 52.6699C632.662 52.4543 633.693 52.3776 634.72 52.4419C635.777 52.4972 636.82 52.7033 637.819 53.0538C638.129 53.1659 638.383 53.3962 638.524 53.6945C638.666 53.9928 638.684 54.335 638.574 54.6465C638.465 54.9579 638.237 55.2135 637.939 55.3575C637.642 55.5014 637.3 55.5222 636.988 55.4151C636.958 55.4041 636.928 55.3931 636.9 55.3801L636.822 55.3481Z" fill="#0C0C0C"/>
<path d="M650.78 53.2526C652.762 52.5703 654.892 52.438 656.943 52.8697C657.948 53.0744 658.916 53.4286 659.815 53.9204C660.702 54.4011 661.525 54.9923 662.263 55.6799C662.427 55.8211 662.529 56.0203 662.548 56.2354C662.567 56.4504 662.502 56.6645 662.366 56.8324C662.23 57.0002 662.035 57.1087 661.82 57.1349C661.606 57.161 661.39 57.1028 661.218 56.9726L661.163 56.9306C660.496 56.3985 659.765 55.9525 658.987 55.603C658.226 55.2555 657.417 55.0257 656.587 54.9212C654.957 54.7025 653.297 54.9184 651.777 55.547L651.707 55.578C651.403 55.7141 651.057 55.7239 650.746 55.6051C650.435 55.4863 650.183 55.2488 650.047 54.9446C649.911 54.6405 649.901 54.2948 650.02 53.9835C650.139 53.6722 650.376 53.4208 650.68 53.2846C650.713 53.2756 650.746 53.2626 650.78 53.2526Z" fill="#0C0C0C"/>
<path d="M652.809 24.284C654.568 17.9977 652.532 11.9328 648.262 10.7376C643.991 9.54247 639.104 13.6696 637.344 19.9559C635.585 26.2421 637.621 32.307 641.891 33.5022C646.162 34.6974 651.05 30.5703 652.809 24.284Z" fill="#0C0C0C"/>
<path d="M244.253 49.375H12.2689C5.49296 49.375 0 54.8682 0 61.6445V174.649C0 181.426 5.49296 186.919 12.2689 186.919H244.253C251.028 186.919 256.521 181.426 256.521 174.649V61.6445C256.521 54.8682 251.028 49.375 244.253 49.375Z" fill="#F4F4F4"/>
<path d="M156.176 127.477H139.802C138.805 127.477 137.997 128.284 137.997 129.281V165.576C137.997 166.572 138.805 167.38 139.802 167.38H156.176C157.173 167.38 157.981 166.572 157.981 165.576V129.281C157.981 128.284 157.173 127.477 156.176 127.477Z" fill="white"/>
<path d="M195.635 89.3865H179.26C178.264 89.3865 177.456 90.1944 177.456 91.191V165.576C177.456 166.572 178.264 167.38 179.26 167.38H195.635C196.632 167.38 197.439 166.572 197.439 165.576V91.191C197.439 90.1944 196.632 89.3865 195.635 89.3865Z" fill="white"/>
<path d="M235.093 118.532H218.718C217.722 118.532 216.914 119.34 216.914 120.337V165.576C216.914 166.572 217.722 167.38 218.718 167.38H235.093C236.089 167.38 236.897 166.572 236.897 165.576V120.337C236.897 119.34 236.089 118.532 235.093 118.532Z" fill="white"/>
<path d="M37.8033 127.477H21.4288C20.4322 127.477 19.6244 128.284 19.6244 129.281V165.576C19.6244 166.572 20.4322 167.38 21.4288 167.38H37.8033C38.7998 167.38 39.6076 166.572 39.6076 165.576V129.281C39.6076 128.284 38.7998 127.477 37.8033 127.477Z" fill="white"/>
<path d="M77.2609 89.3865H60.8865C59.8899 89.3865 59.0821 90.1944 59.0821 91.191V165.576C59.0821 166.572 59.8899 167.38 60.8865 167.38H77.2609C78.2575 167.38 79.0653 166.572 79.0653 165.576V91.191C79.0653 90.1944 78.2575 89.3865 77.2609 89.3865Z" fill="white"/>
<path d="M116.719 118.532H100.344C99.3476 118.532 98.5397 119.34 98.5397 120.337V165.576C98.5397 166.572 99.3476 167.38 100.344 167.38H116.719C117.715 167.38 118.523 166.572 118.523 165.576V120.337C118.523 119.34 117.715 118.532 116.719 118.532Z" fill="white"/>
<path d="M551.87 0.999756H131.362C122.385 0.999756 115.107 8.27753 115.107 17.2551V512.385C115.107 521.363 122.385 528.64 131.362 528.64H551.87C560.847 528.64 568.124 521.363 568.124 512.385V17.2551C568.124 8.27753 560.847 0.999756 551.87 0.999756Z" fill="white"/>
<path d="M551.87 529.64H131.362C126.787 529.635 122.402 527.815 119.167 524.58C115.932 521.345 114.113 516.96 114.107 512.385V17.2551C114.113 12.6804 115.932 8.29455 119.167 5.05974C122.402 1.82493 126.787 0.00529174 131.362 0L551.87 0C556.444 0.00529174 560.83 1.82493 564.064 5.05974C567.299 8.29455 569.119 12.6804 569.124 17.2551V512.385C569.119 516.96 567.299 521.345 564.064 524.58C560.83 527.815 556.444 529.635 551.87 529.64ZM131.362 1.99943C127.317 2.00419 123.44 3.61301 120.58 6.47297C117.72 9.33292 116.112 13.2105 116.107 17.2551V512.385C116.112 516.429 117.72 520.307 120.58 523.167C123.44 526.027 127.317 527.636 131.362 527.641H551.87C555.914 527.636 559.791 526.027 562.651 523.167C565.511 520.307 567.12 516.429 567.125 512.385V17.2551C567.12 13.2105 565.511 9.33292 562.651 6.47297C559.791 3.61301 555.914 2.00419 551.87 1.99943H131.362Z" fill="#292A2E"/>
<path d="M389.227 80.829C394.608 80.829 398.97 76.4664 398.97 71.0848C398.97 65.7032 394.608 61.3406 389.227 61.3406C383.845 61.3406 379.483 65.7032 379.483 71.0848C379.483 76.4664 383.845 80.829 389.227 80.829Z" fill="#F2C57A"/>
<path d="M389.227 80.829C394.608 80.829 398.97 76.4664 398.97 71.0848C398.97 65.7032 394.608 61.3406 389.227 61.3406C383.845 61.3406 379.483 65.7032 379.483 71.0848C379.483 76.4664 383.845 80.829 389.227 80.829Z" fill="#F2C57A"/>
<path d="M389.227 130.499C394.608 130.499 398.97 126.136 398.97 120.754C398.97 115.373 394.608 111.01 389.227 111.01C383.845 111.01 379.483 115.373 379.483 120.754C379.483 126.136 383.845 130.499 389.227 130.499Z" fill="#292A2E"/>
<path opacity="0.5" d="M389.227 180.169C394.608 180.169 398.97 175.806 398.97 170.424C398.97 165.043 394.608 160.68 389.227 160.68C383.845 160.68 379.483 165.043 379.483 170.424C379.483 175.806 383.845 180.169 389.227 180.169Z" fill="#F2C57A"/>
<path opacity="0.2" d="M389.227 229.839C394.608 229.839 398.97 225.476 398.97 220.094C398.97 214.713 394.608 210.35 389.227 210.35C383.845 210.35 379.483 214.713 379.483 220.094C379.483 225.476 383.845 229.839 389.227 229.839Z" fill="#F2C57A"/>
<path d="M195.817 145.589C195.82 157.467 199.505 169.051 206.365 178.746C213.225 188.442 222.922 195.772 234.121 199.727L218.37 238.132C196.709 229.968 178.598 214.462 167.194 194.317C155.79 174.171 151.814 150.663 155.961 127.888C160.107 105.112 172.113 84.5136 189.885 69.6806C207.658 54.8476 230.071 46.7206 253.22 46.7156V88.1847C237.996 88.1847 223.395 94.2327 212.63 104.998C201.865 115.764 195.817 130.365 195.817 145.589Z" fill="#292A2E"/>
<path d="M352.089 145.589H310.622C310.622 130.365 304.574 115.764 293.809 104.998C283.044 94.2327 268.443 88.1847 253.22 88.1847V46.7156C279.441 46.7172 304.588 57.1347 323.129 75.6767C341.67 94.2188 352.087 119.367 352.089 145.589Z" fill="#F2C57A"/>
<path opacity="0.5" d="M352.089 145.589C352.087 167.993 344.479 189.732 330.513 207.248C316.546 224.764 297.047 237.02 275.207 242.01L268.181 201.022C280.363 197.73 291.121 190.517 298.793 180.498C306.465 170.479 310.624 158.212 310.626 145.593L352.089 145.589Z" fill="#F2C57A"/>
<path opacity="0.2" d="M275.207 242.01C256.291 246.295 236.534 244.948 218.374 238.136L234.124 199.727C245.088 203.575 256.958 204.024 268.181 201.018L275.207 242.01Z" fill="#F2C57A"/>
<path d="M524.771 71.7915H411.909C411.722 71.7915 411.542 71.7171 411.409 71.5845C411.277 71.452 411.202 71.2722 411.202 71.0847C411.202 70.8973 411.277 70.7175 411.409 70.5849C411.542 70.4524 411.722 70.3779 411.909 70.3779H524.771C524.958 70.3779 525.138 70.4524 525.271 70.5849C525.403 70.7175 525.478 70.8973 525.478 71.0847C525.478 71.2722 525.403 71.452 525.271 71.5845C525.138 71.7171 524.958 71.7915 524.771 71.7915Z" fill="#F2C57A"/>
<path d="M524.771 121.465H411.909C411.722 121.465 411.542 121.391 411.409 121.258C411.277 121.126 411.202 120.946 411.202 120.759C411.202 120.571 411.277 120.391 411.409 120.259C411.542 120.126 411.722 120.052 411.909 120.052H524.771C524.958 120.052 525.138 120.126 525.271 120.259C525.403 120.391 525.478 120.571 525.478 120.759C525.478 120.946 525.403 121.126 525.271 121.258C525.138 121.391 524.958 121.465 524.771 121.465Z" fill="#292A2E"/>
<g opacity="0.5">
<path d="M524.771 171.131H411.909C411.726 171.124 411.553 171.047 411.426 170.915C411.3 170.783 411.229 170.608 411.229 170.425C411.229 170.242 411.3 170.066 411.426 169.935C411.553 169.803 411.726 169.725 411.909 169.719H524.771C524.866 169.715 524.961 169.731 525.049 169.764C525.138 169.798 525.219 169.85 525.288 169.916C525.356 169.982 525.411 170.061 525.448 170.148C525.485 170.236 525.504 170.33 525.504 170.425C525.504 170.52 525.485 170.614 525.448 170.701C525.411 170.789 525.356 170.868 525.288 170.934C525.219 171 525.138 171.051 525.049 171.085C524.961 171.119 524.866 171.135 524.771 171.131Z" fill="#F2C57A"/>
</g>
<g opacity="0.2">
<path d="M524.771 220.801H411.909C411.726 220.794 411.553 220.717 411.426 220.585C411.3 220.453 411.229 220.278 411.229 220.095C411.229 219.912 411.3 219.736 411.426 219.604C411.553 219.473 411.726 219.395 411.909 219.388H524.771C524.866 219.385 524.961 219.4 525.049 219.434C525.138 219.468 525.219 219.52 525.288 219.586C525.356 219.652 525.411 219.731 525.448 219.818C525.485 219.906 525.504 220 525.504 220.095C525.504 220.19 525.485 220.284 525.448 220.371C525.411 220.459 525.356 220.538 525.288 220.604C525.219 220.67 525.138 220.721 525.049 220.755C524.961 220.789 524.866 220.805 524.771 220.801Z" fill="#F2C57A"/>
</g>
<g opacity="0.1">
<path d="M525.257 490.751H157.975C154.781 490.747 151.72 489.477 149.462 487.219C147.204 484.961 145.934 481.899 145.931 478.706V292.617C145.934 289.423 147.205 286.362 149.462 284.104C151.72 281.846 154.782 280.576 157.975 280.572H525.257C528.45 280.575 531.511 281.846 533.769 284.104C536.027 286.362 537.297 289.423 537.301 292.617V478.706C537.297 481.899 536.027 484.961 533.769 487.219C531.511 489.477 528.45 490.747 525.257 490.751Z" fill="#F2C57A"/>
</g>
<path opacity="0.5" d="M195.997 322.785H188.846C187.77 322.785 186.898 323.657 186.898 324.733V461.335C186.898 462.411 187.77 463.284 188.846 463.284H195.997C197.073 463.284 197.945 462.411 197.945 461.335V324.733C197.945 323.657 197.073 322.785 195.997 322.785Z" fill="#F2C57A"/>
<path d="M184.949 366.913H177.798C176.722 366.913 175.85 367.786 175.85 368.862V461.336C175.85 462.412 176.722 463.285 177.798 463.285H184.949C186.025 463.285 186.897 462.412 186.897 461.336V368.862C186.897 367.786 186.025 366.913 184.949 366.913Z" fill="#F2C57A"/>
<path opacity="0.5" d="M284.407 445.507H277.256C276.18 445.507 275.308 446.379 275.308 447.456V461.337C275.308 462.413 276.18 463.285 277.256 463.285H284.407C285.483 463.285 286.355 462.413 286.355 461.337V447.456C286.355 446.379 285.483 445.507 284.407 445.507Z" fill="#F2C57A"/>
<path d="M273.36 358.979H266.209C265.133 358.979 264.261 359.851 264.261 360.927V461.336C264.261 462.412 265.133 463.284 266.209 463.284H273.36C274.436 463.284 275.308 462.412 275.308 461.336V360.927C275.308 359.851 274.436 358.979 273.36 358.979Z" fill="#F2C57A"/>
<path opacity="0.5" d="M240.202 379.186H233.051C231.975 379.186 231.103 380.058 231.103 381.134V461.335C231.103 462.411 231.975 463.284 233.051 463.284H240.202C241.278 463.284 242.15 462.411 242.15 461.335V381.134C242.15 380.058 241.278 379.186 240.202 379.186Z" fill="#F2C57A"/>
<path d="M229.154 408.243H222.003C220.927 408.243 220.055 409.116 220.055 410.192V461.335C220.055 462.411 220.927 463.284 222.003 463.284H229.154C230.23 463.284 231.102 462.411 231.102 461.335V410.192C231.102 409.116 230.23 408.243 229.154 408.243Z" fill="#F2C57A"/>
<path opacity="0.5" d="M417.022 349.958H409.872C408.796 349.958 407.923 350.831 407.923 351.907V461.336C407.923 462.413 408.796 463.285 409.872 463.285H417.022C418.098 463.285 418.971 462.413 418.971 461.336V351.907C418.971 350.831 418.098 349.958 417.022 349.958Z" fill="#F2C57A"/>
<path d="M405.975 391.681H398.824C397.748 391.681 396.876 392.554 396.876 393.63V461.337C396.876 462.413 397.748 463.285 398.824 463.285H405.975C407.051 463.285 407.923 462.413 407.923 461.337V393.63C407.923 392.554 407.051 391.681 405.975 391.681Z" fill="#F2C57A"/>
<path opacity="0.5" d="M328.612 367.635H321.461C320.385 367.635 319.513 368.508 319.513 369.584V461.336C319.513 462.412 320.385 463.284 321.461 463.284H328.612C329.688 463.284 330.56 462.412 330.56 461.336V369.584C330.56 368.508 329.688 367.635 328.612 367.635Z" fill="#F2C57A"/>
<path d="M317.565 378.464H310.414C309.338 378.464 308.466 379.336 308.466 380.413V461.336C308.466 462.412 309.338 463.284 310.414 463.284H317.565C318.641 463.284 319.513 462.412 319.513 461.336V380.413C319.513 379.336 318.641 378.464 317.565 378.464Z" fill="#F2C57A"/>
<path opacity="0.5" d="M372.817 322.785H365.667C364.591 322.785 363.718 323.657 363.718 324.733V461.335C363.718 462.411 364.591 463.284 365.667 463.284H372.817C373.893 463.284 374.765 462.411 374.765 461.335V324.733C374.765 323.657 373.893 322.785 372.817 322.785Z" fill="#F2C57A"/>
<path d="M361.77 329.553H354.619C353.543 329.553 352.671 330.425 352.671 331.501V461.335C352.671 462.412 353.543 463.284 354.619 463.284H361.77C362.846 463.284 363.718 462.412 363.718 461.335V331.501C363.718 330.425 362.846 329.553 361.77 329.553Z" fill="#F2C57A"/>
<path opacity="0.5" d="M461.227 322.785H454.077C453.001 322.785 452.128 323.657 452.128 324.733V461.335C452.128 462.411 453.001 463.284 454.077 463.284H461.227C462.303 463.284 463.176 462.411 463.176 461.335V324.733C463.176 323.657 462.303 322.785 461.227 322.785Z" fill="#F2C57A"/>
<path d="M450.18 366.913H443.029C441.953 366.913 441.081 367.786 441.081 368.862V461.336C441.081 462.412 441.953 463.285 443.029 463.285H450.18C451.256 463.285 452.128 462.412 452.128 461.336V368.862C452.128 367.786 451.256 366.913 450.18 366.913Z" fill="#F2C57A"/>
<path opacity="0.5" d="M505.432 379.186H498.282C497.206 379.186 496.333 380.058 496.333 381.134V461.335C496.333 462.411 497.206 463.284 498.282 463.284H505.432C506.508 463.284 507.381 462.411 507.381 461.335V381.134C507.381 380.058 506.508 379.186 505.432 379.186Z" fill="#F2C57A"/>
<path d="M494.385 408.243H487.235C486.158 408.243 485.286 409.116 485.286 410.192V461.335C485.286 462.411 486.158 463.284 487.235 463.284H494.385C495.461 463.284 496.333 462.411 496.333 461.335V410.192C496.333 409.116 495.461 408.243 494.385 408.243Z" fill="#F2C57A"/>
<path d="M551.252 296.068C546.805 296.061 542.436 294.891 538.581 292.674C534.725 290.458 531.517 287.271 529.273 283.431C527.03 279.591 525.83 275.23 525.792 270.783C525.755 266.336 526.881 261.956 529.059 258.078L589.82 149.999C591.452 147.065 593.648 144.483 596.281 142.399C598.913 140.316 601.932 138.774 605.163 137.861C608.393 136.948 611.773 136.682 615.106 137.078C618.44 137.474 621.663 138.526 624.589 140.171C627.516 141.816 630.088 144.024 632.159 146.666C634.23 149.309 635.759 152.334 636.658 155.569C637.556 158.804 637.807 162.185 637.395 165.517C636.984 168.849 635.918 172.067 634.26 174.986L573.499 283.065C571.281 287.014 568.05 290.3 564.14 292.586C560.23 294.871 555.781 296.073 551.252 296.068Z" fill="#F2C57A"/>
<path d="M588.572 256.246L587.664 237.816" stroke="#0C0C0C" stroke-width="0.75" stroke-linecap="round" stroke-linejoin="round"/>
<path d="M662.244 207.404L646.523 189C646.185 188.605 645.77 188.282 645.303 188.052C644.836 187.822 644.327 187.69 643.808 187.663C643.288 187.637 642.768 187.716 642.28 187.897C641.792 188.077 641.346 188.355 640.97 188.714C640.264 189.434 639.859 190.394 639.835 191.402C639.81 192.409 640.17 193.388 640.84 194.141L644.199 198.074L661.007 210.84L662.244 207.404Z" fill="#E98862"/>
<path d="M637.585 212.255L587.943 215.349C585.95 215.473 583.982 214.854 582.419 213.612C580.855 212.37 579.808 210.593 579.478 208.623L567.214 135.361C567.027 134.246 567.077 133.104 567.36 132.009C567.642 130.915 568.152 129.892 568.855 129.006C569.558 128.121 570.44 127.393 571.442 126.87C572.445 126.347 573.546 126.04 574.674 125.97L624.316 122.877C626.309 122.753 628.277 123.372 629.84 124.614C631.404 125.856 632.451 127.634 632.78 129.603L645.042 202.864C645.229 203.979 645.179 205.121 644.897 206.215C644.614 207.31 644.105 208.333 643.402 209.218C642.699 210.103 641.818 210.831 640.816 211.354C639.814 211.878 638.713 212.185 637.585 212.255Z" fill="#292A2E"/>
<path d="M644.199 198.073L627.904 190.53C626.105 189.66 623.344 189.742 622.501 191.822C622.125 192.601 622.024 193.485 622.214 194.329C622.405 195.173 622.876 195.927 623.551 196.469C623.537 196.485 623.525 196.502 623.516 196.52C623.511 196.534 623.508 196.549 623.506 196.564L620.733 195.221C620.223 194.974 619.664 194.844 619.096 194.839C618.529 194.834 617.968 194.956 617.453 195.194C616.938 195.433 616.483 195.782 616.12 196.218C615.757 196.654 615.495 197.165 615.353 197.715C615.145 198.595 615.247 199.52 615.643 200.333C616.038 201.146 616.703 201.798 617.524 202.177L618.704 202.749C618.703 202.792 618.709 202.835 618.724 202.875C617.847 202.675 616.927 202.791 616.126 203.203C615.326 203.614 614.696 204.294 614.347 205.123C613.989 206.066 614.003 207.108 614.385 208.041C614.767 208.973 615.489 209.726 616.405 210.146L619.304 211.546C619.248 211.555 619.196 211.577 619.151 211.611C619.106 211.644 619.069 211.688 619.044 211.739C619.016 211.803 619.008 211.875 619.022 211.945C618.206 211.981 617.424 212.278 616.789 212.792C616.155 213.306 615.702 214.009 615.496 214.8C615.288 215.68 615.39 216.605 615.786 217.418C616.181 218.232 616.846 218.884 617.667 219.263L642.383 231.234C645.841 232.908 649.72 233.512 653.523 232.967C657.326 232.422 660.88 230.754 663.729 228.176L672.901 219.878L644.199 198.073Z" fill="#E98862"/>
<g opacity="0.2">
<path d="M639.641 204.019C639.6 204.101 639.529 204.165 639.442 204.195C639.354 204.226 639.259 204.221 639.175 204.183L623.68 196.985C623.638 196.965 623.601 196.937 623.569 196.903C623.538 196.869 623.514 196.829 623.498 196.785C623.482 196.741 623.475 196.695 623.477 196.648C623.479 196.602 623.49 196.556 623.51 196.514C623.53 196.472 623.558 196.435 623.592 196.403C623.626 196.372 623.666 196.348 623.71 196.332C623.754 196.316 623.8 196.309 623.846 196.311C623.893 196.313 623.938 196.324 623.98 196.344L639.475 203.537C639.56 203.576 639.626 203.648 639.658 203.736C639.691 203.824 639.687 203.922 639.647 204.007L639.641 204.019Z" fill="#0C0C0C"/>
</g>
<g opacity="0.2">
<path d="M636.657 210.94C636.616 211.023 636.545 211.086 636.458 211.117C636.371 211.148 636.275 211.143 636.191 211.105L618.905 203.077C618.82 203.037 618.754 202.966 618.722 202.877C618.69 202.789 618.694 202.692 618.733 202.607C618.775 202.524 618.847 202.461 618.934 202.429C619.021 202.397 619.117 202.399 619.203 202.435L636.489 210.463C636.574 210.503 636.64 210.574 636.672 210.662C636.704 210.75 636.7 210.848 636.661 210.933L636.657 210.94Z" fill="#0C0C0C"/>
</g>
<g opacity="0.2">
<path d="M633.469 218.451C633.428 218.534 633.357 218.597 633.27 218.628C633.183 218.659 633.087 218.654 633.003 218.616L619.214 212.212C619.172 212.192 619.134 212.164 619.103 212.13C619.071 212.095 619.047 212.055 619.031 212.012C619.015 211.968 619.008 211.922 619.011 211.875C619.013 211.829 619.024 211.783 619.044 211.741C619.063 211.699 619.091 211.661 619.125 211.63C619.16 211.599 619.2 211.574 619.243 211.559C619.287 211.543 619.333 211.536 619.38 211.538C619.426 211.54 619.472 211.551 619.514 211.571L633.303 217.974C633.388 218.014 633.453 218.086 633.485 218.174C633.518 218.262 633.513 218.359 633.474 218.444L633.469 218.451Z" fill="#0C0C0C"/>
</g>
<path d="M643.198 238.332L750.419 290.929C754.958 293.02 759.996 293.784 764.952 293.133C769.907 292.483 774.577 290.444 778.424 287.253C782.27 284.062 785.136 279.848 786.69 275.098C788.244 270.347 788.423 265.254 787.206 260.407L758.576 157.467C756.866 150.649 752.518 144.791 746.488 141.179C740.458 137.568 733.241 136.499 726.424 138.209C712.229 141.771 704.606 156.166 708.168 170.363L730.63 226.022L661.926 197.215L643.198 238.332Z" fill="#F2C57A"/>
<path d="M743.364 288.042C743.331 288.036 743.3 288.025 743.27 288.011L643.044 238.65C642.961 238.61 642.897 238.539 642.866 238.452C642.834 238.365 642.838 238.27 642.876 238.186L661.602 197.069C661.639 196.985 661.708 196.918 661.794 196.885C661.88 196.851 661.976 196.853 662.061 196.889L729.088 224.411L715.822 184.455C715.81 184.411 715.806 184.364 715.811 184.318C715.817 184.272 715.831 184.227 715.854 184.187C715.876 184.146 715.907 184.111 715.943 184.082C715.98 184.053 716.021 184.032 716.066 184.019C716.11 184.006 716.157 184.003 716.203 184.008C716.249 184.013 716.294 184.028 716.334 184.05C716.375 184.073 716.411 184.103 716.439 184.14C716.468 184.176 716.49 184.218 716.502 184.262L729.968 224.926C729.986 224.99 729.986 225.058 729.967 225.122C729.948 225.186 729.912 225.243 729.862 225.288C729.812 225.332 729.75 225.361 729.685 225.372C729.619 225.383 729.551 225.375 729.49 225.349L662.103 197.674L643.663 238.162L743.578 287.372C743.654 287.41 743.715 287.473 743.748 287.551C743.781 287.629 743.785 287.717 743.759 287.798C743.733 287.879 743.679 287.948 743.606 287.992C743.534 288.036 743.448 288.053 743.364 288.039V288.042Z" fill="#0C0C0C"/>
<path d="M741.65 230.77C741.621 230.765 741.593 230.757 741.566 230.745L729.486 225.347C729.443 225.328 729.405 225.301 729.373 225.267C729.342 225.233 729.317 225.194 729.3 225.15C729.283 225.107 729.276 225.061 729.277 225.015C729.278 224.968 729.288 224.923 729.307 224.88C729.326 224.838 729.353 224.8 729.387 224.768C729.421 224.736 729.46 224.711 729.504 224.694C729.547 224.678 729.593 224.67 729.639 224.671C729.686 224.673 729.731 224.683 729.774 224.702L741.855 230.1C741.932 230.136 741.994 230.198 742.029 230.275C742.064 230.353 742.07 230.441 742.046 230.522C742.022 230.604 741.969 230.674 741.897 230.719C741.825 230.765 741.739 230.783 741.655 230.77H741.65Z" fill="#0C0C0C"/>
<path d="M605.08 158.647C604.565 158.002 603.855 157.54 603.057 157.332C602.258 157.124 601.413 157.179 600.649 157.491C600.644 157.444 600.627 157.398 600.6 157.359C600.573 157.319 600.537 157.287 600.495 157.264C600.452 157.242 600.405 157.231 600.357 157.231C600.31 157.231 600.263 157.243 600.22 157.265L602.305 154.746C602.946 154.001 603.287 153.046 603.264 152.063C603.24 151.081 602.853 150.143 602.177 149.43C601.52 148.781 600.651 148.39 599.729 148.332C598.807 148.273 597.895 148.549 597.161 149.109C597.161 149.071 597.125 149.043 597.11 149.009L597.963 147.979C598.548 147.297 598.882 146.435 598.908 145.537C598.934 144.639 598.651 143.759 598.106 143.044C597.751 142.598 597.301 142.237 596.788 141.986C596.276 141.736 595.714 141.604 595.143 141.598C594.573 141.592 594.009 141.714 593.491 141.954C592.974 142.195 592.517 142.547 592.153 142.986L590.184 145.366C590.173 145.354 590.175 145.335 590.162 145.324C590.149 145.313 590.122 145.315 590.104 145.304C590.496 144.53 590.614 143.645 590.437 142.796C590.261 141.946 589.801 141.182 589.133 140.628C587.501 139.086 584.955 140.16 583.682 141.7L571.648 155.981L571.994 155.335L573.42 150.344C573.709 149.405 573.638 148.392 573.222 147.502C572.807 146.612 572.075 145.908 571.17 145.526C570.674 145.335 570.143 145.25 569.612 145.275C569.081 145.3 568.561 145.436 568.085 145.673C567.609 145.91 567.187 146.244 566.847 146.653C566.507 147.062 566.256 147.537 566.11 148.049L559.459 171.322L557.845 176.974C557.07 179.684 557.383 182.59 558.717 185.074C560.05 187.558 562.3 189.423 564.987 190.275L566.745 190.832C570.407 191.992 574.333 192.032 578.018 190.947C581.703 189.862 584.981 187.7 587.43 184.74L604.937 163.58C605.522 162.899 605.856 162.037 605.882 161.139C605.908 160.241 605.625 159.361 605.08 158.647Z" fill="#E98862"/>
<g opacity="0.2">
<path d="M578.611 158.847C578.682 158.905 578.774 158.933 578.865 158.925C578.957 158.916 579.042 158.873 579.102 158.803L590.199 145.821C590.232 145.787 590.257 145.745 590.274 145.7C590.291 145.655 590.298 145.607 590.295 145.56C590.293 145.512 590.281 145.465 590.26 145.422C590.238 145.379 590.209 145.34 590.172 145.309C590.136 145.278 590.093 145.254 590.048 145.24C590.002 145.226 589.954 145.221 589.906 145.226C589.858 145.231 589.812 145.245 589.77 145.269C589.728 145.292 589.691 145.324 589.662 145.362L578.566 158.343C578.535 158.378 578.512 158.419 578.498 158.463C578.483 158.508 578.478 158.554 578.481 158.601C578.485 158.647 578.498 158.693 578.519 158.734C578.54 158.776 578.569 158.812 578.605 158.843L578.611 158.847Z" fill="#0C0C0C"/>
</g>
<g opacity="0.2">
<path d="M584.203 163.899C584.274 163.958 584.366 163.986 584.458 163.977C584.55 163.969 584.635 163.925 584.695 163.855L597.08 149.369C597.111 149.333 597.134 149.292 597.148 149.248C597.163 149.204 597.168 149.157 597.165 149.11C597.161 149.064 597.148 149.019 597.127 148.977C597.106 148.936 597.077 148.899 597.041 148.869C596.969 148.811 596.877 148.782 596.784 148.789C596.691 148.797 596.604 148.839 596.542 148.908L584.157 163.394C584.126 163.43 584.103 163.471 584.089 163.515C584.074 163.559 584.069 163.606 584.073 163.653C584.076 163.699 584.089 163.744 584.11 163.786C584.131 163.827 584.16 163.864 584.196 163.894L584.203 163.899Z" fill="#0C0C0C"/>
</g>
<g opacity="0.2">
<path d="M590.224 169.407C590.295 169.465 590.387 169.493 590.479 169.485C590.57 169.476 590.656 169.433 590.716 169.363L600.595 157.807C600.628 157.772 600.654 157.731 600.671 157.686C600.687 157.641 600.694 157.593 600.692 157.545C600.689 157.497 600.677 157.45 600.656 157.407C600.635 157.364 600.605 157.326 600.569 157.295C600.532 157.263 600.49 157.24 600.444 157.226C600.398 157.211 600.35 157.206 600.302 157.211C600.255 157.216 600.208 157.231 600.166 157.254C600.125 157.277 600.088 157.309 600.058 157.347L590.178 168.904C590.147 168.939 590.124 168.98 590.11 169.025C590.095 169.069 590.09 169.116 590.094 169.162C590.097 169.209 590.11 169.254 590.132 169.295C590.153 169.337 590.182 169.374 590.218 169.404L590.224 169.407Z" fill="#0C0C0C"/>
</g>
<path d="M597.163 184.005L577.436 272.722C576.315 279.661 572.483 285.87 566.784 289.984C561.085 294.097 553.986 295.778 547.047 294.657C540.109 293.536 533.9 289.704 529.787 284.005C525.673 278.305 523.993 271.205 525.114 264.267L552.2 169.485" fill="#F2C57A"/>
<path d="M578.971 256.246L590.094 215.382" stroke="#0C0C0C" stroke-width="0.75" stroke-linecap="round" stroke-linejoin="round"/>
<path d="M766.918 775H71.024C70.7589 775 70.5046 774.895 70.3172 774.707C70.1297 774.52 70.0244 774.265 70.0244 774C70.0244 773.735 70.1297 773.481 70.3172 773.293C70.5046 773.106 70.7589 773 71.024 773H766.918C767.183 773 767.437 773.106 767.625 773.293C767.812 773.481 767.918 773.735 767.918 774C767.918 774.265 767.812 774.52 767.625 774.707C767.437 774.895 767.183 775 766.918 775Z" fill="#292A2E"/>
</g>
<defs>
<clipPath id="clip0_2433_1447">
<rect width="788" height="775" fill="white"/>
</clipPath>
</defs>
</svg>
